<svg xmlns="http://www.w3.org/2000/svg" viewBox="0 0 335.96 335.96" style="enable-background:new 0 0 335.96 335.96" xml:space="preserve"><path d="M168 90.46c-47.72 0-137.96 6.16-137.96 29.48s90.24 29.52 137.96 29.52c47.72 0 137.96-6.2 137.96-29.48S215.72 90.46 168 90.46zm0 51v-.04c-85.32 0-129.96-14-129.96-21.48S82.68 98.46 168 98.46s129.96 14 129.96 21.52-44.64 21.48-129.96 21.48z"/><path d="M168 76.74c-81.44 0-168 15.24-168 43.48.005 1.725.331 3.434.96 5.04l17.96 86.32c6.12 29.4 24.64 47.64 48.36 47.64h201.44c23.72 0 42.28-18.24 48.36-47.64L335 125.26a13.91 13.91 0 0 0 .96-5.04C336 91.98 249.44 76.74 168 76.74zm141.28 133.2c-4 20-16.96 41.28-40.52 41.28H67.28c-23.56 0-36.4-21.32-40.52-41.28l-15.2-73.04c26.2 17.48 92.88 26.76 156.44 26.76s130.24-9.28 156.44-26.76l-15.16 73.04zm17.48-85.72c-9.32 15.6-72 31.48-158.76 31.48s-149.4-16-158.76-31.48a7 7 0 0 1 0-8c9.36-15.6 72-31.44 158.76-31.44s149.4 16 158.76 31.44a7 7 0 0 1 0 8z"/><path d="M233.602 212.982a19.19 19.19 0 0 0-3.322-6.282c6.606-8.295 5.237-20.374-3.058-26.98s-20.374-5.237-26.98 3.058a19.2 19.2 0 0 0-3.322 6.282h-57.84a19.16 19.16 0 0 0-18.4-13.64c-10.604-.02-19.216 8.56-19.236 19.164a19.203 19.203 0 0 0 4.276 12.116c-6.606 8.295-5.237 20.374 3.058 26.98 8.295 6.606 20.374 5.237 26.98-3.058a19.2 19.2 0 0 0 3.322-6.282h57.84c3.136 10.129 13.89 15.798 24.02 12.662 10.129-3.136 15.798-13.891 12.662-24.02zm-7.122-17.211a11.202 11.202 0 0 1-4.32 7.729 4 4 0 0 0 0 6.36c4.806 3.894 5.546 10.946 1.653 15.753-3.894 4.806-10.946 5.546-15.753 1.653a11.2 11.2 0 0 1-4.06-7.285 4 4 0 0 0-4-3.6h-64.2a4 4 0 0 0-4 3.6c-.638 6.153-6.143 10.623-12.296 9.984-6.153-.638-10.623-6.143-9.984-12.296a11.206 11.206 0 0 1 4.32-7.729 4 4 0 0 0 0-6.36c-4.806-3.894-5.546-10.946-1.653-15.753 3.894-4.806 10.946-5.546 15.753-1.653a11.2 11.2 0 0 1 4.06 7.285 4 4 0 0 0 4 3.6h64.2a4 4 0 0 0 4-3.6c.638-6.153 6.143-10.623 12.296-9.984 6.152.639 10.623 6.144 9.984 12.296z"/></svg>