<svg version="1.1" id="LOGO" xmlns="http://www.w3.org/2000/svg" x="0" y="0" viewBox="0 0 410.6 82.8" style="enable-background:new 0 0 410.6 82.8" xml:space="preserve"><style>.st0{fill:#fff}</style><path class="st0" d="M384.4 72.4h26.1V74h-26.1zM13.4.4.1.3v49.8h13.3C27 50.1 38 38.8 38 25.2 38 11.8 27 .6 13.4.4zM13.1 43h-6V7.4h6c9.9 0 17.8 8.1 17.8 17.8C30.9 35.1 23 43 13.1 43zM75.7.2C62.6.2 52.1 11.4 52.1 25c0 13.7 10.5 25 23.6 25C89.5 50 100 38.8 100 25 100 11.4 89.5.2 75.7.2zm0 43c-9.3 0-16.8-8.1-16.8-18.2 0-9.9 7.5-17.9 16.8-17.9 10 0 17.4 8 17.4 17.9.1 10.1-7.4 18.2-17.4 18.2zM142 28.6h8.2v10.1c-2.4 2.4-7.1 4.4-10.7 4.4-10 0-17.7-8.3-17.7-18.4 0-9.4 7.7-17.7 17.7-17.7 4.4 0 8.2 1.3 11.3 3.8l2.5-6.3c-3.8-3.3-8.7-4.5-13.8-4.5-14 0-25.3 10.7-25.3 24.6 0 14 11.3 25.3 25.3 25.3 3.7 0 7.5-1.1 10.7-2.5v2.5h6.8V22.1h-15v6.5zM200.3 28.6h8.2v10.1c-2.4 2.4-7.1 4.4-10.7 4.4-10 0-17.7-8.3-17.7-18.4 0-9.4 7.7-17.7 17.7-17.7 4.4 0 8.2 1.3 11.3 3.8l2.5-6.3c-3.8-3.3-8.7-4.5-13.8-4.5-14 0-25.3 10.7-25.3 24.6 0 14 11.3 25.3 25.3 25.3 3.7 0 7.5-1.1 10.7-2.5v2.5h6.8V22.1h-15v6.5zM254.2.2c-13.1 0-23.6 11.2-23.6 24.8 0 13.7 10.5 25 23.6 25 13.8 0 24.3-11.2 24.3-25C278.4 11.4 268 .2 254.2.2zm0 43c-9.3 0-16.8-8.1-16.8-18.2 0-9.9 7.5-17.9 16.8-17.9 10 0 17.4 8 17.4 17.9 0 10.1-7.5 18.2-17.4 18.2zM323.9 38.9 302 .3h-7.9v49.8h6.7V12.5l21.8 37.6h7.9V.3h-6.6zM347.4.3h6.9v49.9h-6.9zM402.8 50.1h7.8L389 0l-21.6 50.1h7.5l3.5-7.8h21.1l3.3 7.8zm-21.4-14.3 7.5-17.4 7.5 17.4h-15zM49.6 71.3c-1.8-.2-3.3-1.3-3.3-3 0-1.9 1.5-3.4 3.7-3.4 1.3.1 2.3.5 3.3 1.3l.5-.8c-.9-.9-2.4-1.4-3.8-1.4-2.6 0-4.6 2-4.6 4.3 0 2.9 2.6 3.7 4.1 3.9.8.2 5 .2 5 3.7 0 2.2-1.5 3.8-3.8 3.8 0 0-3.3 0-4.7-2.2l-.5.7c1.6 2.3 5.2 2.4 5.2 2.4 2.7-.1 4.8-2.1 4.8-4.6 0-3.4-3.3-4.4-5.9-4.7zM94.7 74.9c0 2.6-2.2 4.8-4.8 4.8-2.7 0-4.8-2.2-4.8-4.8V64.1h-1v10.8c-.1 3.2 2.7 5.8 5.8 5.8 3.1 0 5.7-2.5 5.8-5.9V64h-1v10.9zM130.1 64.1h-4.6v16.6h.9v-5.2h3.7c.2 0 .5 0 .8-.1 1.3-.2 2.2-.9 2.2-.9 1.6-1.1 2.6-2.8 2.6-4.8 0-3-2.5-5.6-5.6-5.6zm-.1 10.4h-3.6v-9.4h3.6c2.6 0 4.7 2.1 4.7 4.7s-2.2 4.7-4.7 4.7zM169.1 64.1h-4.6v16.6h.9v-5.2h3.7c.2 0 .5 0 .8-.1 1.3-.2 2.2-.9 2.2-.9 1.6-1.1 2.6-2.8 2.6-4.8 0-3-2.5-5.6-5.6-5.6zm-.1 10.4h-3.6v-9.4h3.6c2.6 0 4.7 2.1 4.7 4.7s-2.1 4.7-4.7 4.7zM204.5 64h-1v16.7h8.6v-1h-7.6zM244 72.3l-4.7-8.3h-1.2l5.4 9.4v7.2h1v-7.4l5.3-9.2h-1.2zM317.7 79.7c-4 0-7.3-3.3-7.3-7.3s3.3-7.3 7.3-7.3c1.4 0 2.7.3 3.8 1l.5-.9c-1.3-.8-2.8-1.2-4.3-1.2-4.6 0-8.3 3.8-8.3 8.4s3.7 8.3 8.3 8.3c1.5 0 3-.4 4.3-1.2l-.5-.9c-1.1.7-2.5 1.1-3.8 1.1zM357.2 64c-4.4 0-8 3.7-8 8.3 0 4.6 3.6 8.3 8 8.3s8-3.7 8-8.3c0-4.6-3.6-8.3-8-8.3zm0 15.6c-3.8 0-7.1-3.3-7.1-7.3s3.3-7.3 7.1-7.3 7.1 3.3 7.1 7.3-3.2 7.3-7.1 7.3zM0 71.4h26.2V73H0z"/></svg>