<svg version="1.1" id="Layer_1" xmlns="http://www.w3.org/2000/svg" x="0" y="0" viewBox="0 0 609.2 180" style="enable-background:new 0 0 609.2 180" xml:space="preserve"><style>.st0{fill:#fff}</style><g id="LOGO"><path d="M0 14.6v147.7h609.2V14.6H0zM605.9 159H146.3V18h459.6v141z"/><path d="M555.2 120.5h26.1v1.6h-26.1zM184.2 48.5l-13.3-.1v49.8h13.3c13.6 0 24.6-11.3 24.6-24.9-.1-13.4-11-24.6-24.6-24.8zm-.4 42.6h-6V55.5h6c9.9 0 17.8 8.1 17.8 17.8 0 9.9-7.9 17.8-17.8 17.8zM246.5 48.3c-13.1 0-23.6 11.2-23.6 24.8 0 13.7 10.5 25 23.6 25 13.8 0 24.3-11.2 24.3-25 0-13.6-10.5-24.8-24.3-24.8zm0 43c-9.3 0-16.8-8.1-16.8-18.2 0-9.9 7.5-17.9 16.8-17.9 10 0 17.4 8 17.4 17.9 0 10.1-7.4 18.2-17.4 18.2zM312.7 76.7h8.2v10.1c-2.4 2.4-7.1 4.4-10.7 4.4-10 0-17.7-8.3-17.7-18.4 0-9.4 7.7-17.7 17.7-17.7 4.4 0 8.2 1.3 11.3 3.8l2.5-6.3c-3.8-3.3-8.7-4.5-13.8-4.5-14 0-25.3 10.7-25.3 24.6 0 14 11.3 25.3 25.3 25.3 3.7 0 7.5-1.1 10.7-2.5V98h6.8V70.2h-15v6.5zM371.1 76.7h8.2v10.1c-2.4 2.4-7.1 4.4-10.7 4.4-10 0-17.7-8.3-17.7-18.4 0-9.4 7.7-17.7 17.7-17.7 4.4 0 8.2 1.3 11.3 3.8l2.5-6.3c-3.8-3.3-8.7-4.5-13.8-4.5-14 0-25.3 10.7-25.3 24.6 0 14 11.3 25.3 25.3 25.3 3.7 0 7.5-1.1 10.7-2.5V98h6.8V70.2h-15v6.5zM424.9 48.3c-13.1 0-23.6 11.2-23.6 24.8 0 13.7 10.5 25 23.6 25 13.8 0 24.3-11.2 24.3-25 0-13.6-10.5-24.8-24.3-24.8zm0 43c-9.3 0-16.8-8.1-16.8-18.2 0-9.9 7.5-17.9 16.8-17.9 10 0 17.4 8 17.4 17.9.1 10.1-7.4 18.2-17.4 18.2zM494.7 87l-22-38.6h-7.9v49.8h6.7V60.6l21.9 37.6h7.8V48.4h-6.5zM518.1 48.4h6.9v49.9h-6.9zM573.6 98.2h7.8l-21.6-50.1-21.6 50.1h7.5l3.5-7.8h21.1l3.3 7.8zm-21.4-14.3 7.5-17.4 7.5 17.4h-15zM220.4 119.4c-1.8-.2-3.3-1.3-3.3-3 0-1.9 1.5-3.4 3.7-3.4 1.3.1 2.3.5 3.3 1.3l.5-.8c-.9-.9-2.4-1.4-3.8-1.4-2.6 0-4.6 2-4.6 4.3 0 2.9 2.6 3.7 4.1 3.9.8.2 5 .2 5 3.7 0 2.2-1.5 3.8-3.8 3.8 0 0-3.3 0-4.7-2.2l-.5.7c1.6 2.3 5.2 2.4 5.2 2.4 2.7-.1 4.8-2.1 4.8-4.6-.1-3.4-3.4-4.4-5.9-4.7zM265.4 123c0 2.6-2.2 4.8-4.8 4.8-2.7 0-4.8-2.2-4.8-4.8v-10.8h-1V123c-.1 3.2 2.7 5.8 5.8 5.8 3.1 0 5.7-2.5 5.8-5.9v-10.8h-1V123zM300.8 112.2h-4.6v16.6h.9v-5.2h3.7c.2 0 .5 0 .8-.1 1.3-.2 2.2-.9 2.2-.9 1.6-1.1 2.6-2.8 2.6-4.8 0-3-2.5-5.6-5.6-5.6zm-.1 10.4h-3.6v-9.4h3.6c2.6 0 4.7 2.1 4.7 4.7s-2.1 4.7-4.7 4.7zM339.9 112.2h-4.6v16.6h.9v-5.2h3.7c.2 0 .5 0 .8-.1 1.3-.2 2.2-.9 2.2-.9 1.6-1.1 2.6-2.8 2.6-4.8-.1-3-2.5-5.6-5.6-5.6zm-.2 10.4h-3.6v-9.4h3.6c2.6 0 4.7 2.1 4.7 4.7s-2.1 4.7-4.7 4.7zM375.3 112.1h-1.1v16.7h8.7v-1h-7.6zM414.7 120.4l-4.6-8.3h-1.2l5.4 9.4v7.2h1v-7.4l5.2-9.2h-1.2zM488.4 127.8c-4 0-7.3-3.3-7.3-7.3s3.3-7.3 7.3-7.3c1.4 0 2.7.3 3.8 1l.5-.9c-1.3-.8-2.8-1.2-4.3-1.2-4.6 0-8.3 3.8-8.3 8.4s3.7 8.3 8.3 8.3c1.5 0 3-.4 4.3-1.2l-.5-.9c-1.1.7-2.4 1.1-3.8 1.1zM528 112.1c-4.4 0-8 3.7-8 8.3 0 4.6 3.6 8.3 8 8.3s8-3.7 8-8.3c0-4.6-3.6-8.3-8-8.3zm0 15.6c-3.8 0-7.1-3.3-7.1-7.3s3.3-7.3 7.1-7.3 7.1 3.3 7.1 7.3-3.2 7.3-7.1 7.3zM170.8 119.5H197v1.6h-26.2z"/><g><path class="st0" d="M32.8 137.4c-1.8.1-3.6-.2-5.2-1-.8-.4-1.6-.9-2.3-1.5-.3-.3-.7-.6-1-1-.3-.3-.6-.7-.8-1.1-1-1.5-1.8-3.2-2.1-5-.2-.9-.2-1.8-.2-2.7.1-.9.2-1.8.5-2.7.3-.9.7-1.7 1.3-2.4.5-.7 1.1-1.4 1.8-2 1.3-1.2 2.8-2.1 4.4-2.9.7-.4 1.5-.7 2.2-1-.3.1-.7.2-1 .2-1.2.3-2.4.7-3.6 1.3-2.3 1-4.5 2.3-6.4 4-.9.8-1.8 1.7-2.6 2.7l-.6.7-.5.8c-.3.5-.7 1-.9 1.6-1.1 2.2-1.5 4.6-1.2 7 .1 1.2.4 2.4.8 3.5s1 2.2 1.7 3.2c1.4 1.9 3.4 3.5 5.6 4.5 1.1.5 2.3.9 3.5 1.2 1.2.3 2.5.5 3.7.5 1.3.1 2.5.1 3.8 0 1.1-.1 2.2-.2 3.3-.4 0-.2-.1-.5-.1-.7-.1-.7-.1-1.4-.1-2.1 0-1.4.2-2.8.3-4.2.1-.5.1-1 .2-1.4l-1.8.6c-.9.2-1.8.3-2.7.3zM89.5 144.6v-.6c0-.1 0-.3.1-.4h-1c-1.6-.1-3.1-.5-4.5-1.2.1.2.1.3.2.5.3.7.6 1.3 1 2l.5 1 .5 1c.3.7.7 1.3 1 2s.6 1.4.8 2.2c.1.4.1.9.1 1.3v1.1l-.1 2.2v.1c.1.1.2.2.2.3.5.5 1 .8 1.7 1 .3.1.7.2 1 .2h1c.4 0 .8.1 1.1.3.4.2 1 .5 1.5.5.4 0 .8-.1 1.2-.3.2-.1.4-.1.5-.2.1 0 .2-.1.2-.2.1 0 .2-.1.2-.2l.1-.1h.2c.4 0 .9-.1 1.4-.1-.1-.2-.3-.5-.5-.7-.3-.3-.7-.7-1.2-.9-.5-.3-.9-.5-1.5-.7-.5-.2-1-.4-1.6-.6.6 0 1.1 0 1.7.1.6.1 1.1.2 1.7.5.5.2 1.1.5 1.5.9.4.3.7.8.9 1.3h.1c.2-.1.4-.1.6-.2.2-.1.4-.2.5-.2 0 0 .1 0 .1-.1-.1-.2-.2-.4-.4-.6-.2-.3-.5-.5-.8-.7-.6-.5-1.2-.9-1.9-1.4.4 0 .9 0 1.3.1s.8.3 1.2.5.7.5 1 .9c.2.3.4.6.5.9h.2c.1 0 .2-.1.3-.1-.1-.2-.2-.3-.3-.5l-.7-.7c-.3-.2-.6-.4-.9-.7-.3-.2-.6-.5-.9-.7.4 0 .8 0 1.2.1s.8.3 1.1.5c.4.2.7.5 1 .8 0 0 0 .1.1.1 0-.3-.2-.6-.5-.9s-.6-.5-1-.7c-.2-.1-.4-.2-.5-.3-.2-.1-.4-.2-.5-.2-.4-.1-.8-.1-1.2-.3-.4-.1-.8-.3-1.2-.6-.3-.2-.7-.4-1-.5-.4-.1-.7-.3-1.1-.4l-1.2-.3c-.2 0-.4-.1-.6-.1h-.5c-.1 0-.2 0-.2-.1-.3-.1-.5-.3-.7-.4l-.5-.5c-.3-.3-.5-.7-.7-1.1s-.4-.7-.6-1.1c-.4-.8-.7-1.5-1-2.3-.1-.1-.1-.3-.2-.5z"/><path class="st0" d="M129.6 160.8c-.4-.4-.9-.7-1.5-1-.3-.1-.5-.3-.8-.4-.1-.1-.2-.1-.4-.1l-.4-.1c-.6-.1-1.2-.3-1.8-.5-.3-.1-.6-.3-.9-.5l-.4-.2c-.1-.1-.2-.1-.4-.2-.5-.3-1.1-.5-1.6-.7-1.1-.4-2.3-.7-3.4-.8h-.2c-.1 0-.3 0-.4-.1l-.6-.3c-.3-.2-.6-.4-.8-.7-.5-.5-.8-1-1.2-1.5-.7-1-1.3-2.1-1.9-3.2-.3-.6-.5-1.1-.8-1.7l-.1-.2v-.1s0-.1-.1-.2c-.1-.2-.1-.4-.1-.6v-1c.1-1.3.3-2.5.5-3.7.5-2.4 1-4.8 1.5-7.1l1.4-7.1c.2-1.2.4-2.4.6-3.5 0-.3.1-.6.1-.9v-2.7c0-1.2-.1-2.4-.1-3.6 0-.6-.1-1.2-.1-1.8 0-.3 0-.6-.1-.9 0-.3-.1-.6-.2-.9.2.3.2.6.3.9s.1.6.2.9c.1.6.2 1.1.3 1.7.2-1.1.4-2.2.5-3.3.2-1.4.3-2.8.4-4.1l.3-4.2.1-2.1c0-.6-.1-1.3-.2-2-.4-2.6-1.3-5.3-2.3-7.8-.5-1.3-1-2.6-1.5-3.8-.3-.6-.5-1.3-.8-1.9s-.6-1.3-.9-1.9c-1.1-2.5-2.5-4.9-3.8-7.4-.6-1.2-1.3-2.5-1.8-3.8s-1-2.7-1.1-4.2v-2.1c0-.7 0-1.4.1-2.1.1-1.4.1-2.8.2-4.2.1-1.9.3-3.7.4-5.6-.1.2-.1.4-.2.6-.8 2.3-1.9 4.6-3.5 6.4 1-2.2 1.7-4.4 2.2-6.7.1-.6.3-1.2.4-1.7.1-.6.3-1.2.3-1.7.2-1.1.2-2.2.1-3.4 0-1.2-.1-2.3-.2-3.6v-3.5c-.1-1.1-.3-2.3-.5-3.5-.2-1.2-.5-2.3-.7-3.5.4.8.8 1.6 1.1 2.4.7-.1 1.4-.2 2-.4.4-.1.8-.3 1-.5.1-.1.2-.3.3-.4v-.5c0-.4.2-.9.6-1.3.3-.3.7-.6 1.1-.8.4-.2.7-.4 1.1-.6.1 0 .2-.1.2-.1.1 0 .1-.1.2-.1.1-.1.2-.3.3-.4.3-.7.4-1.5.5-2.2.1-.8.1-1.6.1-2.4 0-.8-.1-1.6-.2-2.4 0-.2-.1-.4-.1-.5l-.1-.3c0-.1-.1-.2-.1-.4-.1-.5-.1-.9 0-1.4.2-1.7.6-3.3.8-4.9l.3-2.4c0-.4.1-.8.1-1.2v-1.2c0-1.5-.3-3.1-.7-4.6s-1-3-1.7-4.4c-.3-.7-.7-1.4-1.1-2-.4-.6-.9-1.3-1.4-1.7-.1-.1-.3-.2-.4-.3-.1 0-.1-.1-.2-.1s-.1 0-.1-.1c-.1 0-.4 0-.7.1-.6.3-1.2.8-1.7 1.3-1.1 1.1-2 2.4-2.8 3.8-.4.7-.7 1.4-1.1 2.1-.2.3-.3.8-.5 1.1-.2.4-.4.8-.6 1.1-.8 1.5-1.8 2.8-2.8 4.1s-2 2.6-3.1 3.8-2.2 2.5-3.3 3.7l-.4.5c-.1.1-.2.3-.2.5-.1.4 0 .8.1 1.2.1.7.4 1.4.6 2 .2 0 .4.1.6.1.6.1 1.1.3 1.7.6-.3-.1-.6-.1-.9-.1h-2.6c-1.1 0-2.3.1-3.4.2s-2.3.2-3.3.4c-.3 0-.5.1-.7.2h-.1l-.2.1-.4.2c-.5.3-1.1.5-1.6.7-1.1.4-2.3.7-3.5.8-.4 0-.4 0-.7.1-.2.1-.5.2-.7.3-.5.2-1 .5-1.5.7l-6 3.3c.5-.5 1.1-1.1 1.7-1.6-.4-.5-.7-1-1-1.6-.2-.3-.3-.7-.5-1-.1-.2-.1-.3-.2-.5l.1-.4c0-.1-.1-.1-.1-.2-.2-.2-.5-.4-.8-.6-.3-.2-.7-.3-1-.4-.7-.2-1.4-.5-2.1-.6-1.4-.4-2.9-.7-4.3-1.1-1.4-.3-2.9-.7-4.3-1.2-.4-.1-.7-.3-1.1-.4-.4-.1-.8-.4-1.1-.6-.7-.4-1.3-.9-1.9-1.3-1.2-.9-2.3-1.9-3.5-2.7-.6-.4-1.2-.8-1.7-1-.1-.1-.3-.1-.4-.1h-.2c0 .1-.1.2-.1.3-.2.5-.2 1.2-.3 1.9 0 .7 0 1.4.1 2.1.2 1.4.5 2.8.9 4.2.2.7.5 1.3.8 2 .1.2.2.3.2.5l.3.5c.2.3.4.7.5 1 .7 1.3 1.4 2.6 2 4l2 3.9 2.1 3.9c.7 1.3 1.4 2.6 2.3 3.8.2.3.4.6.7.8.1.1.2.2.4.3.1 0 .1.1.2.1h.2c.7.1 1.5.1 2.2.1s1.5.1 2.2.2c.4.1.7.1 1.1.2.1 0 .1.1.2.1v-.4c0-1.3.2-2.5.6-3.7 0 1.3 0 2.5.2 3.7.1.6.2 1.2.4 1.8.1.3.2.6.3.8.1.1.1.3.2.4l.2.4c.6 1.2 1 2.3 1.4 3.5l1.2 3.6.5 1.8c.2.6.3 1.2.5 1.8.2.5.5 1 .8 1.5.3.5.7 1 1.1 1.4.8.9 1.6 1.8 2.6 2.5.9.8 2 1.4 3.1 1.9-1.3-.1-2.5-.6-3.6-1.2-.5-.3-1-.6-1.5-1 .2.3.4.6.7.9 1 1.5 2.1 2.9 3.2 4.3.3.3.6.7.9 1l.9 1c.6.7 1.2 1.4 1.7 2.2.5.8 1 1.6 1.4 2.4.2.4.4.9.5 1.3.2.4.3.9.3 1.4-.2-.4-.5-.8-.7-1.1-.3-.4-.5-.7-.8-1.1-.6-.7-1.2-1.4-1.8-2-.6-.7-1.2-1.3-1.8-2l-.5-.5-.5-.5c-.3-.3-.6-.7-.9-1.1-.7-.8-1.2-1.6-1.8-2.5v2.4c0 1.3-.1 2.6-.3 4-.2 1.3-.3 2.6-.8 4-.3.6-.5 1.2-.8 1.8l-.8 1.8c-.5 1.2-1.1 2.4-1.5 3.6-.5 1.2-.9 2.4-1.3 3.7-.7 2.5-1.3 5-1.1 7.5 0 .6.1 1.3.2 1.9.1.6.2 1.3.3 1.9l.6 3.9c.4 2.6.9 5.2 1.3 7.8.2 1.3.5 2.6.7 3.9l.7 3.9c.2 1.3.5 2.6.7 3.9.1.6.3 1.3.4 1.9l.2 1 .2 1c-.5-1.2-.9-2.5-1.3-3.7-.4-1.3-.8-2.5-1.1-3.8s-.7-2.5-1-3.8-.6-2.6-.9-3.8c-.3-1.3-.6-2.6-.8-3.9-.3-1.3-.5-2.6-.8-3.9-.2-1.3-.5-2.6-.7-3.9-.1-.7-.2-1.3-.3-2s-.2-1.3-.2-2c-.1-2.5.4-4.9 1.1-7.2L61.9 96c-1.1 1-2.2 2-3.2 3.1-.3.3-.5.6-.7.8l-.6.9c-.4.6-.8 1.3-1.2 1.9-.8 1.3-1.6 2.6-2.3 3.9-.4.7-.8 1.3-1.2 2-.2.3-.5.7-.7 1-.3.3-.6.6-.8.9-1.1 1.1-2.2 2.1-3.3 3.1-1.1 1.1-2.2 2.1-3.2 3.2-.5.6-1 1.1-1.4 1.7-.4.5-.7 1-.9 1.6.6-.4 1.3-.5 1.9-.6.8-.1 1.5 0 2.2.2.3.1.7.2 1 .2.3.1.7.2 1 .3.7.3 1.2.9 1.7 1.4s.8 1.1 1.2 1.7l.9 1.8c.3.6.5 1.3.8 1.9-.7-1.2-1.3-2.4-2.1-3.5-.4-.5-.8-1.1-1.3-1.5-.5-.5-1-.9-1.5-1.1-.3-.1-.6-.2-.9-.2-.3-.1-.6-.1-1-.2-.6-.1-1.3-.1-1.9 0-.6.1-1.2.3-1.6.6-.2.2-.4.4-.5.6-.2.3-.3.5-.4.8-.5 1.2-.8 2.5-1.1 3.8s-.5 2.6-.7 4c-.2 1.3-.4 2.7-.5 4-.2 1.4-.4 2.7-.6 4-.2 1.3-.3 2.7-.4 4 0 1.3 0 2.6.4 3.8 0 .1.1.3.1.4.1.1.1.3.2.4.1.3.3.6.4.9l.9 1.8c.7 1.1 1.4 2.3 2.2 3.3s1.8 1.9 2.9 2.4c.6.2 1.1.4 1.7.3h.2l.2-.1.5-.1c.3-.1.6-.2 1-.3l3.9-1.2c.7-.2 1.3-.3 2-.4.3 0 .7 0 1 .1s.7.2.9.5c-.2-.2-.5-.3-.8-.4 0 .4-.1.7-.2 1.1v1.1c.1.7.5 1.1 1.1 1.4.1.1.3.1.4.2.2.1.3.1.5.2l1.1.4c.7.2 1.4.5 2.2.8 1.4.6 2.8 1.3 4.1 2.3.6.5 1.2 1.1 1.7 1.7.3.4.5.8.7 1.3 0-.1.1-.2.1-.3.1-.3.2-.5.4-.8 0 .6 0 1.1.1 1.7.1.5.2 1 .4 1.4.1.2.2.3.3.4 0 0 .1 0 .1.1l.1.1c.1.1.2.1.4.2.5.2 1 .4 1.5.7.5.3 1.1.6 1.5 1.1l.3.3.3.3c.1.2.3.3.5.5.4.3.8.5 1.3.7s.9.3 1.5.4c.1-.1.1-.3.2-.4v.2c.2-.4.2-.8.3-1.2.1-.5.2-1 .2-1.4.1-1 .2-1.9.3-2.9s.1-1.9.1-2.9V160.6c-.3-.2-.6-.4-.9-.5-.6-.3-1.2-.5-1.8-.7s-1.2-.3-1.8-.4H72.4c-.4 0-.8-.1-1.1-.2-.7-.2-1.3-.6-1.9-.9l-.8-.5-.9-.4c-.6-.3-1.2-.6-1.7-1-.3-.2-.6-.4-.8-.6-.1-.1-.3-.2-.4-.3-.2-.1-.3-.3-.4-.4-.5-.6-.9-1.1-1.2-1.7s-.6-1.2-.9-1.7c-.1-.3-.3-.6-.4-.8 0-.1-.1-.1-.1-.2l-.1-.2c-.1-.2-.2-.3-.2-.5-.3-.6-.5-1.2-.8-1.8-.5-1.2-.9-2.4-1.4-3.7-.4-1.2-.8-2.5-1.1-3.8.6 1.2 1.2 2.3 1.8 3.4l1.8 3.4c.3.6.6 1.1.9 1.7.1.1.2.3.2.4v.1l.1.1c.1.1.1.2.1.2.2.3.4.6.5.9.3.6.6 1.1 1 1.6.3.5.7 1 1 1.4l.3.3c.1.1.2.2.4.3.2.2.5.4.8.5.5.4 1 .7 1.6 1l.4.2c.1.1.3.2.4.3l.8.5c.5.3 1.1.7 1.6.9.3.1.5.2.7.3H73.2c.2 0 .3.1.5.1.7.2 1.3.4 1.9.7.6.3 1.2.6 1.7 1 .2.2.5.4.7.6 0-.2-.1-.4-.1-.6-.2-.5-.3-1-.4-1.5-.1-.5-.1-1.1 0-1.6 0-.5.1-1 .2-1.5 0-.5.1-.9.1-1.4s0-.9-.1-1.3c0-.2-.1-.4-.1-.6 0-.1-.1-.3-.2-.5-.4-.8-.9-1.7-1.4-2.5-.9-1.7-1.9-3.4-2.6-5.4-.2-.5-.3-1-.4-1.6-.1-.5-.1-1-.2-1.5l-.3-2.9c-.4-3.9-.7-7.8-.8-11.7.8 3.8 1.4 7.7 2 11.6l.5 2.9.2 1.4c.1.4.2.8.4 1.3.4.9.8 1.7 1.2 2.6.5.8.9 1.7 1.4 2.5.5.9 1 1.7 1.4 2.6.1.2.2.5.3.8s.1.6.2.8c.1.5.1 1.1 0 1.6 0 .5-.1 1-.2 1.5l-.2 1.4c-.1.5-.1.9-.1 1.3s.1.9.2 1.3v1.6c0 .5-.1 1-.1 1.5-.1 1-.3 2-.4 2.9-.2 1-.4 1.9-.6 2.9-.1.5-.3 1-.4 1.4-.1.2-.2.5-.3.7s-.2.4-.3.5c0 .8-.2 1.5-.5 2.2-.2.4-.4.8-.7 1.1l-.2.2-.2.2c-.1.2-.2.3-.3.5-.2.3-.3.7-.3.9 0 .1 0 .2.1.3.1.1.2.2.3.2.3.1.7.2 1.1.2h.7c0-.2.1-.4.1-.6.2-.5.4-1 .6-1.4.1-.2.3-.4.4-.6l.2-.3.2-.3c.2-.3.4-.8.6-1.2.2-.4.3-.9.6-1.3-.1 1 0 1.9-.5 2.9l-.1.2-.1.2-.2.3-.3.6c-.2.4-.4.8-.5 1.3-.1.4-.2.8-.2 1.2 0 .3.2.6.6.8.3.2.8.3 1.3.3h1.1c-.1-.2-.1-.4-.1-.6 0-.4 0-.7.1-1 .1-.6.4-1.2.6-1.8.2-.5.4-1.1.5-1.7.4-1.2.7-2.3 1.2-3.5 0 1.2-.2 2.5-.4 3.7-.1.6-.2 1.2-.4 1.8-.2.6-.4 1.2-.5 1.7-.1.3-.1.5-.1.8 0 .2.1.4.1.5 0 0 .1.1.2.1s.3.1.4.1h.8c.6-.1 1.1-.2 1.6-.5.3-.2.7-.5.9-.8-.2-.2-.2-.5-.3-.8 0-.3 0-.6.1-.9.1-.2.1-.3.2-.5l.3-1.2c.2-.8.4-1.6.7-2.5.1.9.1 1.7.1 2.6 0 .4-.1.9-.1 1.3 0 .2-.1.5-.2.7 0 .1-.1.2 0 .4.1.6.4.8 1.1.4.5-.4 1-.9 1.5-1.5.1-.4.2-.8.3-1.1l.3-.7c0-.1.1-.2.1-.3v-.2c0-.3-.1-.8-.3-1.2l-.6-1.2-.2-.3v-.1c0-.1-.1-.1-.1-.2s0-.2-.1-.2c-.1-.3-.1-.5-.1-.8-.1-.5-.1-1-.2-1.5-.1-1-.1-2 0-3 .3.9.6 1.9.8 2.9 0 .1.1.3.1.4.3-.5.6-1 .7-1.5.2-.7.1-1.4-.1-2.1-.2-.7-.5-1.3-.9-1.9s-.8-1.2-1.3-1.9l-.3-.6c-.1-.2-.1-.4-.2-.6-.1-.4-.2-.8-.2-1.2-.1-.8-.1-1.5-.2-2.3V152.5c0-.4 0-.6-.1-.9-.2-.6-.4-1.3-.7-1.9-.3-.7-.6-1.3-.9-2l-.5-1c-.2-.3-.3-.7-.5-1-.3-.7-.6-1.4-.8-2.1-.1-.4-.2-.7-.3-1.1 0-.2-.1-.4-.1-.6v-.6c0-.8.1-1.5.1-2.3.1-.7.2-1.5.3-2.2.1-.4.1-.7.2-1.1 0-.2.1-.4.2-.5.1-.2.1-.4.3-.5-.1.2-.1.4-.1.5V136.9c0 .7 0 1.5.1 2.2 0 .7.1 1.5.2 2.2 0 .4.1.6.2.9 0 .1.1.3.1.4 1.5.4 3 .6 4.6.5.8 0 1.6-.2 2.4-.3.8-.2 1.6-.4 2.4-.7 3.1-1.1 5.9-3 8.5-5.1.6-.5 1.3-1.1 1.9-1.6.3-.3.6-.6.9-.8.3-.3.5-.6.8-.9 1-1.3 2-2.7 2.9-4.1s1.7-2.9 2.6-4.4c.4-.7.8-1.5 1.2-2.2.2-.4.4-.8.6-1.1l.3-.6c0-.1.1-.2.1-.3 0 0 0-.1.1-.1v-.2.4c0 .1 0 .2-.1.3-.1.2-.1.4-.2.6-.1.4-.3.8-.4 1.2l-.9 2.4c-.7 1.6-1.4 3.1-2.2 4.7-.8 1.5-1.7 3-2.8 4.4-.3.4-.6.7-.9 1l-.6.6c.1.5.2.9.3 1.4.1.6.2 1.3.3 1.9.2 1.3.4 2.6.5 3.9.1.6.1 1.3.2 1.9 0 .3 0 .7.1 1V147.8l-.1.2-.1.5c-.1.3-.1.6-.2.9-.1.6-.1 1.2-.1 1.7 0 .2.1.4.2.4l.2.1.4.3c.5.4 1.1.8 1.6 1.5.2.3.4.8.5 1.3l.1 1c.1.6.1 1.3.2 1.9.1.6.2 1.2.3 1.9.1.6.3 1.2.5 1.8.2.6.5 1.2.8 1.6.2.2.4.4.7.5h.5c-.1-.4-.1-.8 0-1.2.2.7.6 1.4 1 1.9.5.5 1 .8 1.7 1 .3.1.7.2 1 .2h3.3c-.3.2-.6.3-.9.4.1 0 .2 0 .3.1.3 0 .5.1.7.1.5 0 1 .1 1.5 0 .5 0 .9-.1 1.4-.3l.6-.3c.1-.1.2-.1.3-.2s.2-.1.2-.2l.1-.1h.2c.6 0 1.2-.1 1.8-.2-.1-.3-.4-.6-.6-.9-.4-.4-.9-.7-1.4-1s-1.1-.5-1.7-.8l-1.8-.6c.6 0 1.3.1 1.9.2.6.1 1.3.3 1.9.5.6.2 1.2.6 1.8 1.1.5.4.8.9 1 1.5h.1c.2-.1.4-.1.7-.2l.6-.3c.1 0 .1-.1.2-.1-.1-.3-.3-.5-.5-.7-.3-.3-.6-.6-.9-.8-.7-.5-1.5-1-2.3-1.5.5 0 1 .1 1.4.2.5.1.9.3 1.4.6.4.3.8.6 1.2 1 .3.3.5.7.6 1.1h.3c.2 0 .3-.1.5-.1-.1-.2-.2-.5-.4-.7-.2-.3-.6-.6-.9-.8-.3-.3-.7-.5-1-.8-.4-.3-.7-.5-1.1-.8.5 0 .9.1 1.4.2.4.1.9.3 1.3.6.4.2.8.5 1.1.9 0 .1.1.1.1.2 0-.1-.1-.3-.2-.4-.2-1-.4-1.2-.6-1.4z"/><path class="st0" d="M90.5 42.8s-.5-5.5 3.4-6.1c2.8-.4 4.3 3.1 4.3 3.1s-.1 6.4-7.7 3z"/><path d="M98.5 39.7c-.5-1.1-1.2-2-2.2-2.7-.5-.3-1.1-.6-1.7-.6-.6 0-1.2.1-1.8.3-.5.3-1 .7-1.4 1.1-.4.5-.6 1-.7 1.6-.2.5-.2 1.1-.3 1.7 0 .6 0 1.1.1 1.7 0-.7.1-1.4.2-2.1 0 .9.3 1.8.8 2.5-.3-.1-.7-.2-1-.3.7.4 1.6.7 2.4 1 .2.1.4.1.6.2.2 0 .4.1.7.1.4 0 .9 0 1.3-.1s.9-.3 1.3-.5c.4-.3.7-.6 1-1s.4-.8.6-1.2c.1-.4.2-.9.2-1.3l-.1-.4zm-.8 1.3c-.1.4-.3.8-.5 1.1-.2.3-.3.5-.6.7.4-.7.6-1.5.6-2.3s-.2-1.5-.5-2.1c.4.5.8 1 1.1 1.6 0 .2 0 .6-.1 1z"/><path d="M88.9 36.5c.1-.6.4-1.1.7-1.6s.7-1 1.2-1.4c1-.8 2.3-1.1 3.6-.8.6.1 1.2.4 1.7.8s.9.9 1.2 1.4c.7 1 1.1 2.2 1.3 3.3-.5-1.1-1.1-2.1-1.8-3l-.6-.6c-.2-.2-.4-.4-.6-.5-.4-.3-.9-.5-1.4-.6-1-.2-2.1 0-3 .6s-1.6 1.4-2.3 2.4z"/><path class="st0" d="M74.6 46.7s-4.6-6.7-7.3 0c0 0 1.1 3.3 3.3 3.1 3.1-.4 4-3.1 4-3.1z"/><path d="M73.5 40.9c-.8-.3-1.7-.6-2.5-.7s-1.6 0-2.3.4c-.6.4-1.1 1.1-1.5 1.8-.4.8-.6 1.6-.9 2.4-.1-.9 0-1.8.3-2.7.1-.4.3-.9.6-1.3s.6-.8 1.1-1c.4-.3.9-.4 1.4-.5.5 0 1 0 1.4.1.9.4 1.7.9 2.4 1.5zM73.4 48.3c.2-.4.3-.9.3-1.3 0-.5-.1-1-.3-1.4l1.2 1.2c-.4-.7-.9-1.4-1.6-1.9-.6-.6-1.3-1.1-2.2-1.2-.4-.1-.9-.1-1.4.1-.4.2-.8.4-1.1.8-.6.6-1 1.4-1.3 2.2l-.1.1v.1c.3.8.7 1.6 1.4 2.3.3.3.7.6 1.1.8.2.1.5.2.7.2s.5 0 .7-.1c.9-.2 1.7-.6 2.4-1.1.6-.6 1.1-1.3 1.4-2.2-.3.4-.7.9-1.2 1.4zm-5.8-1.6c.3-.7.6-1.4 1.1-1.9l.1-.1c-.4.6-.7 1.4-.7 2.2 0 .4.1.8.2 1.2-.2-.4-.5-.9-.7-1.4zM93.2 45.5c.4.2.7.3 1.1.3.4.1.8.1 1.1 0 .8-.1 1.5-.5 2-1 .5-.6.9-1.2 1.2-2 .3-.7.5-1.5.6-2.2-.1.8-.2 1.5-.5 2.3-.3.7-.6 1.5-1.2 2-.5.6-1.3 1-2.1 1-.8.2-1.6 0-2.2-.4zM75 48.1c-.3.6-.6 1.1-.9 1.7l-1.2 1.5c-.5.4-1.1.8-1.7.9-.3 0-.7 0-1-.1s-.6-.3-.8-.5c.3.2.5.4.8.4.3.1.6.1.9.1.6-.1 1.2-.4 1.6-.9.5-.4.9-.9 1.2-1.4.5-.6.8-1.2 1.1-1.7z"/><circle class="st0" cx="94.7" cy="38.4" r=".8"/><circle class="st0" cx="69.7" cy="45.4" r=".7"/><path d="M85.2 63.2c-.2 1.1-.2 2.3-.2 3.4s.1 2.2.4 3.3c.2 1.1.5 2.2.9 3.2.4 1.1.9 2.1 1.4 3.1-.2-.2-.3-.5-.5-.7s-.3-.5-.4-.7c-.3-.5-.5-1-.8-1.5-.5-1-.8-2.2-1-3.3-.2-1.1-.3-2.3-.3-3.4 0-.6 0-1.1.1-1.7.2-.6.3-1.1.4-1.7zM97.3 55c.1-.2.2-.3.3-.4s.3-.2.5-.1c.2 0 .4.1.5.3.1.1.1.1.1.2s0 .2.1.2l-.2-.2c-.1 0-.1-.1-.2-.1-.1-.1-.2-.1-.3-.1-.2 0-.5.1-.8.2zM84.5 46c1.4-.1 2.8 0 4.1.3.3.1.7.2 1 .3l1 .4c.6.3 1.3.6 1.9.9 1.2.7 2.3 1.6 3.2 2.6.5.5.9 1 1.3 1.6l.6.9c.2.3.4.6.5.9-.3-.2-.5-.5-.7-.7l-.7-.7c-.5-.5-1-.9-1.5-1.3-1-.9-2.1-1.6-3.2-2.3-1.1-.7-2.3-1.2-3.6-1.7-1.2-.6-2.5-1-3.9-1.2zM75.3 51.6c-.1 1.1-.1 2.3-.1 3.4.1 1.1.2 2.2.4 3.3.2 1.1.6 2.2 1 3.2l.4.8.4.7c.1.1.1.3.2.4l.2.4c.2.2.3.5.5.7l-.6-.6-.3-.3-.3-.3-.5-.7c-.2-.2-.3-.5-.4-.8l-.2-.4-.2-.4c-.1-.3-.2-.5-.3-.8l-.3-.8c-.1-.3-.1-.6-.2-.9-.2-1.1-.3-2.3-.3-3.5.1-1.2.2-2.3.6-3.4z"/><path d="M98.7 55.8c0-.4-.4-.9-.9-.8-.2 0-.3.1-.4.1-.1 0-.2.1-.2.2v.1l-.1.1c-.9 1.6-2.1 3-3.6 4-.8.5-1.6.9-2.5 1.2-.9.2-1.8.3-2.8.3-.5 0-.9-.1-1.4-.2l-.3-.1-.4-.1c-.2-.1-.5-.1-.7-.1-1-.1-2-.1-3 .3-.5.2-1 .4-1.4.8l-.6.6c-.1.1-.2.2-.2.4 0 .1-.1.1-.1.2s-.1.2-.1.2c-.1.4-.3.7-.5 1-.2.3-.6.6-1 .8.5.2 1.1.1 1.6-.2.1 0 .1-.1.1-.1.2.1.5.4.8.6-.1.3-.2.6-.2.9-.2.9-.3 1.8-.3 2.7 0 .9 0 1.8.1 2.7.1.9.2 1.8.4 2.7.2.9.6 1.8 1.1 2.6.5.8 1.3 1.5 2.2 1.8.9.4 1.9.5 2.8.4.9-.1 1.9-.2 2.8-.6.9-.4 1.7-1 2.3-1.8s.9-1.7 1.1-2.7c.2-.9.1-1.9 0-2.8v-.1c.4-.3.9-.7 1.2-1.1.5-.5.9-1.1 1.2-1.8.2-.3.3-.7.4-1 .1-.3.2-.7.3-1l.5-2c.3-1.4.7-2.7 1-4.1.2-1.1.4-2.1.7-3.2.1-.3.1-.5.2-.7-.1-.1-.1-.1-.1-.2zm-16.1 5.9c0 .1-.1.1-.1.2 0-.1 0-.2.1-.2-.1 0-.1 0 0 0zm9.8 12c-.2.8-.5 1.6-1 2.2s-1.1 1.1-1.9 1.5c-.7.3-1.6.5-2.4.6-.8.1-1.7 0-2.4-.3s-1.4-.8-1.9-1.5-.8-1.4-1.1-2.3c-.3-.8-.4-1.7-.5-2.6-.1-.4-.1-.9-.2-1.3 0-.4-.1-.9-.1-1.3 0-.9 0-1.8.2-2.6.1-.9.3-1.7.6-2.6.2-.6.5-1.3.9-1.8.1 0 .1-.1.2-.1.8-.3 1.7-.5 2.6-.4.5 0 .9.1 1.4.2s1 .1 1.5.1c.6 0 1.3 0 1.9-.2-.2.8-.4 1.6-.3 2.4 0 .9.3 1.8.7 2.6.4.8.9 1.6 1.2 2.4.4.8.6 1.6.7 2.4.1.9.1 1.8-.1 2.6zm3.9-9.8-.6 2c-.2.7-.4 1.3-.7 1.9-.5 1.1-1.1 2.1-1.9 3-.1-.4-.2-.9-.4-1.3.9-.8 1.5-1.8 2.1-2.7.7-1 1.1-2 1.5-2.9.1-.1 0-.1 0 0z"/><path class="st0" d="M102.6 155.9c-.1.1 0 .1 0 0zM89.5 169.3z"/><path d="M89.5 169.3z"/><g><path d="M99.7 29.7c-.9-1.2-1.8-2.4-2.6-3.7-.4-.6-.8-1.2-1.2-1.9-.3-.4-.3-1.1-.3-1.8.1-1.4.5-2.9.7-4.5-.8 1.3-1.4 2.7-1.7 4.3 0 .2-.1.4-.1.6V23.6c0 .1 0 .2.1.4v.2l.1.2c0 .1.1.3.2.3.4.7.8 1.3 1.2 2 .9 1.3 1.8 2.5 2.9 3.6 1.1 1.1 2.2 2.1 3.6 2.9-1.1-1.1-2.1-2.3-2.9-3.5zM61.3 28.1c-1.2-.7-2.5-1.2-3.9-1.2 1.2.6 2.3 1.3 3.3 2.1s1.8 1.7 2.4 2.8c.6 1.1.8 2.3.8 3.5 0 1.3-.2 2.5-.5 3.9.8-1.1 1.3-2.4 1.5-3.8.2-1.4 0-2.9-.7-4.2-.6-1.4-1.7-2.4-2.9-3.1zM89.5 169.3zM86.2 96.2c-.4-1.1-.9-2-1.5-3-.6-.9-1.3-1.8-2-2.6l-2.1-2.4-.5-.6-.2-.3-.1-.1-.1-.1c-.3-.3-.5-.8-.6-1.2-.3-.9-.6-1.9-.7-2.9-.2-1-.3-2.1-.4-3.2-.3 1-.5 2.1-.5 3.2s0 2.2.3 3.3c.2.6.4 1.1.7 1.7l.1.2.1.2.2.3c.2.2.3.4.5.6.7.9 1.4 1.6 2.1 2.4 1.4 1.6 2.7 3.1 3.6 4.9.9 1.8 1.3 3.8 1.6 6 .2-1.1.3-2.1.2-3.2-.2-1-.4-2.1-.7-3.2z"/><path d="M130.4 162c0-.2 0-.4-.1-.6-.1-.3-.3-.6-.5-.8-.4-.5-.9-.9-1.4-1.2-.3-.2-.5-.3-.8-.5-.1-.1-.3-.2-.5-.2l-.4-.1c-.6-.2-1.1-.4-1.6-.6-.3-.1-.5-.3-.7-.4l-.4-.3c-.1-.1-.3-.2-.4-.3-.6-.3-1.1-.6-1.7-.8-1.2-.5-2.3-.8-3.6-1.1H118c-.1 0-.1-.1-.2-.1-.2-.1-.4-.3-.5-.5-.4-.4-.7-.9-1-1.4-.6-1-1.2-2-1.7-3.1-.3-.5-.5-1.1-.7-1.6-.1-.3-.1-.4-.2-.6v-.8c.1-1.1.3-2.3.5-3.5.4-2.4 1-4.7 1.4-7.1.1-.3.1-.6.2-.9l.1-.9.3-1.8c.2-1.2.4-2.4.5-3.6.2-1.2.3-2.4.4-3.7v-1.8c0-.6-.1-1.2-.2-1.8-.1-1.2-.3-2.3-.4-3.5.4-1.1.7-2.3 1-3.4.3-1.4.5-2.7.7-4.1s.4-2.8.5-4.2c.1-.7.2-1.4.2-2.1.1-.7 0-1.5-.1-2.2l-.3-2.1c-.1-.7-.3-1.4-.5-2.1-.4-1.4-.8-2.7-1.2-4-1-2.6-2-5.2-3.2-7.8-.6-1.3-1.2-2.5-1.9-3.8-.7-1.2-1.4-2.4-2-3.7-.7-1.2-1.3-2.4-1.9-3.7-.6-1.2-1-2.5-1.2-3.8-.1-1.3-.1-2.7-.2-4.1V56.7c0-.1.1-.2.1-.3.2-.6.3-1.1.5-1.8.3-1.3.3-2.5.2-3.7 0-1.2-.2-2.4-.3-3.6-.1-.6-.1-1.2-.1-1.7v-.9c0-.3-.1-.6-.1-.9-.2-1.2-.6-2.4-1-3.5-.1-.3-.2-.6-.3-.8.7 0 1.4 0 2-.2.4-.1.8-.2 1.2-.5.2-.1.3-.3.4-.6 0-.1.1-.3.1-.4v-.3c.1-.4.2-.7.5-.9s.6-.4 1-.6c.4-.2.7-.3 1.1-.5.1 0 .2-.1.3-.2.1-.1.2-.2.3-.2.2-.2.3-.4.4-.6.4-.8.6-1.6.8-2.5.1-.8.2-1.7.2-2.5s0-1.7-.1-2.5c0-.2-.1-.4-.1-.7l-.1-.3v-1.3c.1-.8.3-1.6.5-2.4.2-.8.3-1.6.5-2.4.1-.8.3-1.6.4-2.5 0-.4.1-.8.1-1.2 0-.4.1-.9.1-1.3 0-1.7-.3-3.4-.7-5.1-.4-1.6-1-3.2-1.7-4.8-.4-.8-.8-1.5-1.3-2.2s-1-1.4-1.7-2c-.2-.2-.4-.3-.6-.4-.1-.1-.2-.1-.4-.2-.1-.1-.3-.1-.4-.2-.7-.1-1.2 0-1.7.2-.9.4-1.6 1-2.2 1.6-1.2 1.3-2.1 2.7-3 4.2-.4.7-.8 1.5-1.1 2.3-.2.4-.3.7-.5 1.1-.2.4-.3.7-.5 1.1-.7 1.4-1.6 2.8-2.5 4.1-.9 1.4-1.9 2.7-2.8 4l-3 3.9-.4.5c-.2.2-.2.4-.2.7 0 .4.1.9.2 1.3.2.7.5 1.3.8 2-.4-.1-.7-.1-1.1-.2-1.2-.2-2.3-.3-3.5-.3s-2.3 0-3.6.1c-.3 0-.6.1-1 .2 0 0-.1 0-.2.1-.1 0-.1 0-.1.1l-.2.1-.4.2c-.5.2-1 .5-1.5.6-1 .4-2.1.7-3.1.8h-.5c-.1 0-.2 0-.3.1-.1 0-.2.1-.3.1-.3.1-.6.2-.9.4l-1.5.9c-1.3.9-2.5 1.9-3.7 2.9-.4-.5-.6-1.1-.9-1.6-.1-.3-.3-.7-.4-1-.1-.2-.1-.3-.2-.5l-.1-.3c0-.1-.1-.2-.1-.3-.3-.4-.6-.6-.9-.8-.3-.2-.7-.4-1-.5-.7-.3-1.4-.6-2.1-.8-2.8-1-5.7-1.7-8.4-2.7-.3-.1-.7-.3-1-.4-.3-.2-.6-.3-.9-.5-.6-.4-1.1-.9-1.7-1.3-1.1-.9-2.2-1.9-3.5-2.8-.6-.5-1.2-.9-2.1-1.3-.2-.1-.4-.2-.7-.2s-.6-.1-.9 0c-.2.1-.4.1-.5.3-.1.1-.2.2-.3.4-.2.2-.3.5-.4.7-.3.9-.3 1.7-.4 2.5 0 .8 0 1.6.1 2.3.2 1.5.5 3 1 4.5.2.7.5 1.5.9 2.2.1.2.2.4.3.5.1.2.2.3.3.5l.5 1c1.4 2.6 2.8 5.2 4.3 7.8s3 5.2 4.8 7.5c.2.3.5.6.8.9.1.1.3.3.5.4.1.1.2.1.3.2H57c.8 0 1.5 0 2.2-.1.7 0 1.5-.1 2.2 0 .4 0 .7 0 1.1.1.1 0 .2 0 .2.1 0 .5.1 1 .1 1.5 0 .3.1.6.2 1 0 .2.1.3.1.5l.1.2.1.2c.4 1.1.8 2.3 1.1 3.5l1.1 3.6.5 1.8.6 1.8c.3.7.7 1.3 1.1 1.8.3.4.6.7.9 1.1.4 1.2.9 2.3 1.5 3.4.3.7.7 1.3 1.1 1.9v.6c-.1.7-.1 1.3-.2 2-.2 1.3-.3 2.6-.6 3.9-.1.6-.3 1.3-.4 1.9-.2.6-.3 1.3-.6 1.8-.5 1.1-1.2 2.3-1.8 3.5-1.2 2.3-2.4 4.8-3.2 7.3-.1.2-.1.4-.2.5-1.1.6-2.2 1.3-3.3 2-.6.4-1.3.9-1.9 1.4l-1.8 1.5-.8.8c-.3.3-.5.6-.8.9-.5.6-.9 1.3-1.3 1.9-.9 1.3-1.6 2.6-2.4 3.9-.4.6-.8 1.3-1.2 1.9l-.6.9c-.2.2-.5.5-.7.8-1 1.1-2.1 2.2-3.1 3.3-1 1.1-2 2.4-2.9 3.6-.4.6-.8 1.3-1.2 2-.2.3-.3.7-.4 1.1-.1.3-.2.5-.2.8-.1 0-.1.1-.2.1-.3.2-.6.6-.8.9s-.4.6-.5 1c-.6 1.3-1 2.6-1.3 4-.3 1.3-.6 2.7-.8 4s-.4 2.7-.6 4.1c-.1.8-.2 1.5-.4 2.3-1.5.4-3 .5-4.4.5-1.7-.1-3.3-.5-4.7-1.3-.7-.4-1.4-.9-2-1.4s-1.1-1.2-1.5-1.9c-.9-1.4-1.5-2.9-1.8-4.5s-.3-3.2.2-4.7c.4-1.5 1.3-3 2.4-4.2s2.5-2.2 4-3 3.1-1.4 4.7-2l2.2-.7-2.3.2c-2.6.2-5.1.9-7.6 1.7-2.4.9-4.8 2.1-6.9 3.7-1 .8-2 1.7-2.9 2.7l-.6.8-.6.8c-.4.5-.8 1.1-1.1 1.7-1.3 2.4-1.8 5.2-1.6 7.9.2 2.7 1.2 5.4 2.9 7.5.8 1.1 1.8 2.1 2.9 2.9s2.3 1.5 3.5 2c2.5 1 5.2 1.4 7.8 1.4 2.4 0 4.8-.5 7.1-1.1l.3 1.2c.1.2.1.4.2.5.1.2.1.3.2.5.2.3.3.6.5.9.3.6.7 1.2 1 1.8.7 1.2 1.5 2.3 2.5 3.4.5.5 1 1 1.6 1.5.6.4 1.2.8 1.9 1.1.7.3 1.5.4 2.3.2.1 0 .2 0 .3-.1l.3-.1.5-.2c.3-.1.7-.2 1-.3 1.3-.5 2.5-1 3.8-1.5.6-.2 1.3-.5 1.9-.6.3-.1.7-.1 1-.1h.1c-.4.6-.8 1.3-.9 2.2 0 .4.1.9.3 1.3s.5.8.9 1.1c.2.1.4.3.6.4.2.1.4.2.5.3.4.2.7.3 1.1.5l2.1.9c1.4.6 2.7 1.2 4 1.9 1.1.6 2.2 1.3 3 2.3v.2c-.1.6-.2 1.2 0 1.9.1.3.3.7.5 1l.2.2.1.1.1.1c.1.1.3.2.4.2.5.3 1 .5 1.5.8.5.2.9.4 1.2.7.1.1.2.2.3.2l.1.1.1.1.1.1c.3.2.5.4.8.6.6.3 1.2.4 1.8.4.3 0 .6 0 .9-.1.2 0 .4-.1.6-.2-.3.6-.6 1.1-.9 1.6-.2.3-.5.6-.7.9l-.2.2c-.1.1-.1.2-.2.3-.1.2-.3.4-.4.6-.2.4-.4.8-.4 1.4 0 .3.2.6.4.9.2.2.5.3.8.3.5.1.9 0 1.4-.1.2-.1.4-.1.7-.2v.8c.1.3.2.6.4.9.2.2.5.4.8.5.6.2 1.1.1 1.6.1.4-.1.8-.2 1.1-.3.1.2.2.3.4.5.2.1.4.2.6.2h.5c.3 0 .7 0 1-.1.6-.1 1.3-.4 1.7-.9.3-.3.6-.6.8-1 .2.2.4.4.7.5s.7.1.9-.1c.3-.1.5-.3.6-.4.6-.6.9-1.4 1.1-2.1l.6-.9.4-.6c.1-.1.1-.2.2-.3 0 0 .1-.1.1-.2s.1-.2.1-.2c.1-.3.1-.6 0-.9 0-.3-.1-.5-.2-.8-.2-.5-.4-1-.7-1.4l-.2-.3v-.2c-.1-.2-.1-.5-.2-.7-.1-.3-.1-.6-.2-.9.4-.4.8-.9 1.1-1.5.3-.7.4-1.6.2-2.3-.3-1.6-1.2-2.9-1.8-4.2-.1-.2-.1-.3-.2-.4 0-.1-.1-.3-.1-.5-.1-.3-.1-.7-.1-1v-.7c.4.5 1 .8 1.6 1 .4.1.8.2 1.2.2h.6c.2 0 .4 0 .6-.1.1 0 .2 0 .3-.1.1 0 .2.1.2.1l.6.3c.4.1.9.3 1.3.3.5 0 .9 0 1.4-.1.2-.1.5-.1.7-.3.1-.1.2-.1.3-.2.1 0 .1-.1.2-.1h.9c.4 0 .7-.1 1.1-.1l.5-.1-.1-.5h.7c.2 0 .4 0 .6-.1.2-.1.4-.1.7-.2l.3-.1v-.3h.1c.2 0 .3.1.5.1H103.2l.1-.1v-.2c0-.5-.2-.9-.4-1.2 0-.4-.2-.7-.4-1-.3-.3-.6-.6-.9-.8-.4-.2-.7-.5-1.1-.6-.4-.2-.8-.3-1.1-.4-.4-.2-.7-.4-1-.6-.4-.3-.7-.5-1.1-.7-.4-.2-.8-.4-1.2-.5s-.8-.3-1.2-.4c-.2-.1-.4-.1-.6-.1h-.6c-.1 0-.2-.1-.4-.2-.1-.1-.3-.2-.4-.4-.5-.6-1-1.3-1.4-2l-1.2-2.1-.1-.3-.1-.1v-.1c0-.2-.1-.4-.1-.6v-.4c1.4 0 2.7-.2 4-.6 1.7-.5 3.3-1.2 4.8-2.1s2.9-1.9 4.3-3c.7-.6 1.3-1.1 2-1.7l.2-.2v10.9l-.1.2c0 .2-.1.3-.1.5-.1.3-.2.7-.2 1-.1.7-.2 1.4-.1 2.2.1.4.2.9.6 1.3l.2.2c.1 0 .1.1.2.1l.2.1.4.3c.5.3 1 .7 1.3 1.1.1.2.2.3.2.5v.5l.1.5c.1.7.2 1.3.4 1.9.3 1.3.7 2.6 1.4 3.7.3.6.7 1.2 1.3 1.6.3.2.6.4 1 .4.2 0 .4-.1.6-.1.1.4.2.7.4 1 .4.7 1.2 1.3 2 1.5.4.1.8.2 1.2.2h.6c.2 0 .4 0 .6-.1.4-.1.8-.2 1.1-.3.1.1.3.1.4.2.2.1.5.2.7.3.5.2 1 .3 1.6.3.5 0 1.1 0 1.6-.1.3-.1.5-.2.8-.3.1-.1.3-.1.4-.2.1 0 .1-.1.2-.1.4 0 .7 0 1.1-.1.4 0 .8-.1 1.2-.2l.5-.1-.1-.5v-.1H127.8c.2 0 .5-.1.7-.1.3-.1.5-.1.8-.3l.3-.1-.1-.3c.1 0 .1 0 .2.1.2 0 .4.1.6.1H131.1l.1-.1v-.2c-.4-1.9-.6-2.3-.8-2.6zm-96.8-16.7c-1.3.1-2.5.1-3.8 0s-2.5-.2-3.7-.5-2.4-.7-3.5-1.2c-2.2-1-4.2-2.6-5.6-4.5-.7-1-1.3-2-1.7-3.2-.4-1.1-.7-2.3-.8-3.5-.2-2.4.2-4.9 1.2-7 .3-.5.6-1.1.9-1.6l.5-.8.6-.7c.8-.9 1.7-1.8 2.6-2.7 1.9-1.6 4.1-3 6.4-4 1.2-.5 2.4-.9 3.6-1.3.3-.1.7-.2 1-.2-.7.3-1.5.6-2.2 1-1.6.8-3.1 1.7-4.4 2.9-.7.6-1.3 1.3-1.8 2-.5.8-1 1.6-1.3 2.4-.3.9-.5 1.8-.5 2.7 0 .9 0 1.8.2 2.7.4 1.8 1.1 3.5 2.1 5 .3.4.5.7.8 1.1l1 1c.7.6 1.5 1.1 2.3 1.5 1.6.8 3.5 1.1 5.2 1 .9 0 1.8-.2 2.6-.4.6-.1 1.2-.3 1.8-.6-.1.5-.1 1-.2 1.4-.2 1.4-.3 2.7-.3 4.2 0 .7 0 1.4.1 2.1 0 .2.1.5.1.7-1 .3-2.1.4-3.2.5zm55.9-.7c0 .3.1.4.2.6.3.8.6 1.6 1 2.3.2.4.4.7.6 1.1.2.4.5.7.7 1.1.1.2.3.3.5.5s.4.3.7.4c.1 0 .2.1.2.1h.5c.2 0 .4.1.6.1l1.2.3c.4.1.8.2 1.1.4.4.2.7.3 1 .5l1.2.6c.4.1.9.2 1.2.3.2 0 .4.1.5.2.2.1.4.2.5.3.4.2.7.4 1 .7.2.2.4.5.5.9 0 0 0-.1-.1-.1-.3-.4-.6-.6-1-.8-.4-.2-.7-.4-1.1-.5-.4-.1-.8-.2-1.2-.1.3.3.6.5.9.7.3.2.6.4.9.7.3.2.5.5.7.7.1.2.3.3.3.5-.1 0-.2.1-.3.1h-.2c-.1-.3-.3-.7-.5-.9-.3-.4-.7-.6-1-.9-.4-.2-.8-.4-1.2-.5s-.8-.2-1.3-.1c.7.5 1.3.9 1.9 1.4.3.2.6.5.8.7s.3.4.4.6c0 0-.1 0-.1.1-.2.1-.3.2-.5.2-.2.1-.4.2-.6.2h-.1c-.2-.5-.5-1-.9-1.3-.5-.4-1-.7-1.5-.9-.5-.2-1.1-.4-1.7-.5-.6-.1-1.1-.1-1.7-.1.5.2 1 .4 1.6.6.5.2 1 .4 1.5.7.5.3.9.6 1.2.9.2.2.4.4.5.7-.5.1-.9.1-1.4.1h-.2l-.1.1-.2.2-.2.2c-.2.1-.3.2-.5.2l-1.2.3c-.4 0-1-.3-1.5-.5-.3-.2-.7-.3-1.1-.3h-1c-.3-.1-.7-.1-1-.2-.6-.2-1.2-.5-1.7-1-.1-.1-.2-.2-.2-.3v-.1l.1-2.2v-1.1c0-.4 0-.9-.1-1.3-.2-.8-.5-1.5-.8-2.2s-.7-1.4-1-2l-.5-1-.5-1c-.3-.7-.7-1.3-1-2-.1-.2-.1-.3-.2-.5 1.4.6 2.9 1 4.5 1.2h1c0 .1 0 .3-.1.4v.5zm40.6 18.3zm.1-1.2c-.3-.4-.7-.7-1.1-.9-.4-.2-.8-.4-1.3-.6-.4-.1-.9-.2-1.4-.2.4.3.7.5 1.1.8.4.3.7.5 1 .8.3.3.6.5.9.8.2.2.3.4.4.7-.1 0-.3.1-.5.1h-.3c-.1-.4-.4-.8-.6-1.1-.3-.4-.8-.7-1.2-1s-.9-.4-1.4-.6c-.5-.1-1-.2-1.4-.2.8.5 1.6 1 2.3 1.5.3.3.7.5.9.8.2.2.4.5.5.7-.1 0-.2.1-.2.1l-.6.3c-.2.1-.4.2-.7.2h-.1c-.2-.6-.6-1.2-1-1.5-.5-.5-1.1-.8-1.8-1.1-.6-.3-1.3-.4-1.9-.5-.6-.1-1.3-.2-1.9-.2l1.8.6c.6.2 1.2.5 1.7.8s1 .6 1.4 1c.3.3.5.6.6.9-.6.1-1.2.2-1.8.2h-.2l-.1.1-.2.2c-.1.1-.2.1-.3.2l-.6.3c-.4.2-.9.2-1.4.3h-1.5c-.2 0-.5-.1-.7-.1-.1 0-.2 0-.3-.1.3-.1.6-.3.9-.4h-3.3c-.3-.1-.7-.1-1-.2-.6-.2-1.2-.5-1.7-1s-.8-1.2-1-1.9c-.1.4-.1.8 0 1.2h-.5c-.3-.1-.5-.2-.7-.5-.4-.4-.6-1-.8-1.6s-.4-1.2-.5-1.8c-.1-.6-.2-1.2-.3-1.9-.1-.6-.2-1.3-.2-1.9l-.1-1c0-.5-.2-.9-.5-1.3-.5-.7-1.1-1.1-1.6-1.5l-.4-.3-.2-.1-.2-.4c-.1-.5 0-1.1.1-1.7 0-.3.1-.6.2-.9l.1-.5.1-.2V145.7c0-.3 0-.7-.1-1 0-.7-.1-1.3-.2-1.9-.1-1.3-.3-2.6-.5-3.9-.1-.6-.2-1.3-.3-1.9-.1-.5-.2-.9-.3-1.4l.6-.6c.3-.3.6-.7.9-1 1.1-1.4 2-2.9 2.8-4.4s1.5-3.1 2.2-4.7l.9-2.4c.1-.4.3-.8.4-1.2.1-.2.1-.4.2-.6 0-.1 0-.2.1-.3v-.4.2c0 .1 0 .1-.1.1 0 .1-.1.2-.1.3l-.3.6c-.2.4-.4.8-.6 1.1-.4.7-.8 1.5-1.2 2.2-.8 1.5-1.7 2.9-2.6 4.4-.9 1.4-1.8 2.8-2.9 4.1-.3.3-.5.6-.8.9s-.6.6-.9.8c-.6.6-1.2 1.1-1.9 1.6-2.6 2.1-5.4 4-8.5 5.1-.8.3-1.6.5-2.4.7-.8.2-1.6.3-2.4.3-1.5.1-3-.1-4.6-.5-.1-.1-.1-.3-.1-.4-.1-.3-.2-.6-.2-.9-.1-.7-.1-1.5-.2-2.2 0-.7-.1-1.5-.1-2.2V134.5c0-.2 0-.4.1-.5-.1.1-.2.3-.3.5s-.1.4-.2.5c-.1.4-.2.7-.2 1.1-.1.7-.2 1.5-.3 2.2s-.1 1.5-.1 2.3v.6c0 .2.1.4.1.6.1.4.2.8.3 1.1.2.7.6 1.4.8 2.1.1.3.3.7.5 1l.5 1c.3.7.6 1.3.9 2 .3.7.6 1.3.7 1.9.1.3.1.5.1.9V155.1c0 .8.1 1.5.2 2.3.1.4.1.8.2 1.2.1.2.1.4.2.6l.3.6c.4.7.9 1.2 1.3 1.9.4.6.7 1.2.9 1.9.2.7.2 1.4.1 2.1-.1.5-.4 1-.7 1.5 0-.1-.1-.3-.1-.4-.2-1-.5-1.9-.8-2.9-.1 1-.1 2 0 3 0 .5.1 1 .2 1.5 0 .2.1.5.1.8 0 .1 0 .1.1.2 0 0 0 .1.1.2v.1l.2.3c.2.4.5.8.6 1.2.2.4.3.8.3 1.2v.2c0 .1-.1.2-.1.3l-.3.7c-.1.4-.3.8-.3 1.1-.5.6-.9 1.1-1.5 1.5-.7.4-1 .2-1.1-.4v-.4c.1-.2.1-.5.2-.7.1-.4.1-.9.1-1.3 0-.9 0-1.7-.1-2.6-.3.8-.5 1.6-.7 2.5l-.3 1.2c-.1.2-.1.4-.2.5-.1.3-.1.6-.1.9s.1.5.3.8c-.2.3-.6.6-.9.8-.5.3-1.1.4-1.6.5h-.8c-.1 0-.3 0-.4-.1-.1 0-.2-.1-.2-.1-.1-.1-.1-.2-.1-.5 0-.2 0-.5.1-.8.1-.6.3-1.1.5-1.7s.3-1.2.4-1.8c.2-1.2.4-2.4.4-3.7-.5 1.1-.8 2.3-1.2 3.5-.2.6-.3 1.2-.5 1.7-.2.6-.4 1.1-.6 1.8-.1.3-.1.7-.1 1 0 .2 0 .4.1.6h-1.1c-.5 0-.9-.1-1.3-.3-.4-.2-.5-.4-.6-.8 0-.4 0-.8.2-1.2.1-.4.3-.8.5-1.3l.3-.6.2-.3.1-.2.1-.2c.4-1 .3-2 .5-2.9-.3.4-.4.9-.6 1.3-.2.4-.3.9-.6 1.2l-.2.3-.2.3c-.1.2-.3.4-.4.6-.2.4-.5.9-.6 1.4-.1.2-.1.4-.1.6h-.7c-.4 0-.8-.1-1.1-.2-.2-.1-.3-.1-.3-.2-.1-.1-.1-.1-.1-.3 0-.2.1-.6.3-.9.1-.2.2-.3.3-.5.1-.1.1-.2.2-.2l.2-.2c.3-.4.5-.7.7-1.1.3-.7.5-1.4.5-2.2.1-.2.2-.3.3-.5s.2-.5.3-.7c.2-.5.3-.9.4-1.4.2-1 .4-1.9.6-2.9.2-1 .3-1.9.4-2.9.1-.5.1-1 .1-1.5V158.5c-.1-.5-.2-.9-.2-1.3s0-.8.1-1.3l.2-1.4c.1-.5.1-1 .2-1.5v-1.6c0-.3-.1-.6-.2-.8-.1-.4-.2-.6-.3-.8-.5-.9-.9-1.7-1.4-2.6-.5-.8-1-1.7-1.4-2.5s-.9-1.7-1.2-2.6c-.2-.4-.3-.8-.4-1.3l-.2-1.4-.5-2.9c-.6-3.9-1.2-7.7-2-11.6.2 3.9.5 7.8.8 11.7l.3 2.9c.1.5.1 1 .2 1.5.1.6.2 1.1.4 1.6.7 1.9 1.7 3.6 2.6 5.4.5.9 1 1.7 1.4 2.5.1.2.2.4.2.5.1.2.1.4.1.6.1.4.1.9.1 1.3 0 .5 0 .9-.1 1.4 0 .5-.1.9-.2 1.5 0 .5-.1 1.1 0 1.6s.2 1.1.4 1.5c.1.1.1.3.1.6-.2-.2-.5-.4-.7-.6-.5-.4-1.1-.7-1.7-1-.6-.3-1.2-.5-1.9-.7-.2 0-.3-.1-.5-.1h-.6c-.2 0-.5-.1-.7-.3-.5-.2-1-.6-1.6-.9l-.8-.5c-.1-.1-.3-.2-.4-.3l-.4-.2c-.5-.3-1.1-.7-1.6-1-.3-.2-.5-.4-.8-.5-.1-.1-.2-.2-.4-.3-.1-.1-.2-.1-.3-.3-.4-.4-.7-.9-1-1.4s-.6-1.1-1-1.6c-.2-.3-.3-.6-.5-.9 0-.1-.1-.1-.1-.2l-.1-.1v-.1c-.1-.1-.1-.2-.2-.4-.3-.5-.6-1.1-.9-1.7l-1.8-3.4c-.6-1.1-1.2-2.3-1.8-3.4.2 1.3.7 2.5 1.1 3.8.4 1.2.9 2.4 1.4 3.7.2.6.5 1.2.8 1.8.1.2.1.3.2.5l.1.2c0 .1.1.1.1.2.1.3.3.5.4.8.3.6.6 1.2.9 1.7.4.6.7 1.2 1.2 1.7l.4.4c.1.1.3.2.4.3.3.2.6.4.8.6.6.4 1.1.7 1.7 1l.9.4.8.5c.6.3 1.2.6 1.9.9.3.1.7.2 1.1.2h.9c.6.1 1.2.2 1.8.4.6.2 1.2.4 1.8.7.3.2.6.3.9.5V161.7c0 1-.1 1.9-.1 2.9-.1 1-.1 1.9-.3 2.9-.1.5-.1 1-.2 1.4l-.3 1.2v-.2c-.1.1-.1.3-.2.4-.5 0-1-.2-1.5-.4s-.9-.4-1.3-.7c-.2-.1-.3-.3-.5-.5l-.3-.3-.3-.3c-.5-.4-1-.8-1.5-1.1-.5-.3-1-.4-1.5-.7-.1-.1-.2-.1-.4-.2l-.1-.1s-.1 0-.1-.1c-.1-.1-.2-.2-.3-.4-.2-.4-.3-.9-.4-1.4-.1-.5-.1-1.1-.1-1.7-.2.2-.3.5-.4.8 0 .1-.1.2-.1.3-.2-.5-.4-.9-.7-1.3-.5-.7-1.1-1.2-1.7-1.7-1.3-1-2.7-1.7-4.1-2.3-.7-.3-1.4-.6-2.2-.8L58 157c-.2-.1-.3-.1-.5-.2s-.3-.1-.4-.2c-.5-.3-1-.8-1.1-1.4-.1-.3-.1-.7 0-1.1 0-.4.1-.7.2-1.1.3 0 .5.2.8.4-.2-.3-.5-.4-.9-.5-.3-.1-.7-.1-1-.1-.7.1-1.4.2-2 .4l-3.9 1.2c-.3.1-.6.2-1 .3l-.5.1-.2.1h-.2c-.6.1-1.2 0-1.7-.3-1.1-.5-2.1-1.4-2.9-2.4-.8-1-1.5-2.1-2.2-3.3l-.9-1.8c-.1-.3-.3-.6-.4-.9-.1-.1-.1-.3-.2-.4-.1-.1-.1-.3-.1-.4-.3-1.1-.4-2.5-.4-3.8s.2-2.6.4-4c.2-1.3.4-2.7.6-4 .2-1.4.3-2.7.5-4s.4-2.7.7-4 .6-2.6 1.1-3.8c.1-.3.3-.6.4-.8.1-.3.3-.5.5-.6.4-.3 1-.6 1.6-.6.6-.1 1.3-.1 1.9 0 .3 0 .6.1 1 .2.3.1.7.1.9.2.6.2 1.1.6 1.5 1.1.5.5.9 1 1.3 1.5.8 1.1 1.4 2.3 2.1 3.5-.3-.6-.5-1.3-.8-1.9l-.9-1.8c-.3-.6-.7-1.2-1.2-1.7s-1-1.1-1.7-1.4c-.4-.2-.7-.2-1-.3-.3-.1-.7-.2-1-.2-.7-.1-1.4-.2-2.2-.2-.6 0-1.3.2-1.9.6.2-.6.6-1.1.9-1.6.4-.6.9-1.2 1.4-1.7 1-1.1 2.1-2.2 3.2-3.2s2.2-2.1 3.3-3.1c.3-.3.6-.5.8-.9.3-.3.5-.7.7-1 .4-.7.8-1.3 1.2-2 .8-1.3 1.6-2.6 2.3-3.9.4-.6.8-1.3 1.2-1.9l.6-.9c.2-.3.5-.6.7-.8 1-1.1 2.1-2.1 3.2-3.1l2.7-2.4c-.7 2.3-1.2 4.7-1.1 7.2 0 .7.1 1.4.2 2 .1.7.2 1.3.3 2 .2 1.3.4 2.6.7 3.9.2 1.3.5 2.6.8 3.9s.5 2.6.8 3.9.6 2.6.9 3.8c.3 1.3.7 2.6 1 3.8.3 1.3.7 2.5 1.1 3.8.4 1.3.8 2.5 1.3 3.7l-.2-1-.2-1c-.1-.6-.3-1.3-.4-1.9-.3-1.3-.5-2.6-.7-3.9l-.7-3.9c-.2-1.3-.5-2.6-.7-3.9-.5-2.6-.9-5.2-1.3-7.8l-.6-3.9c-.1-.6-.2-1.3-.3-1.9s-.2-1.3-.2-1.9c-.1-2.5.4-5 1.1-7.5.4-1.2.8-2.4 1.3-3.7l1.5-3.6.8-1.8c.3-.6.6-1.2.8-1.8.5-1.3.6-2.6.8-4 .1-1.3.2-2.6.3-4V71c.6.9 1.1 1.7 1.8 2.5.3.4.6.7.9 1.1l.5.5.5.5c.6.6 1.2 1.3 1.8 2s1.2 1.3 1.8 2c.3.3.6.7.8 1.1.3.4.5.7.7 1.1 0-.5-.2-.9-.3-1.4-.2-.4-.3-.9-.5-1.3-.4-.8-.9-1.6-1.4-2.4s-1.1-1.5-1.7-2.2l-.9-1c-.3-.3-.6-.7-.9-1-1.1-1.4-2.2-2.8-3.2-4.3-.2-.3-.4-.6-.7-.9.5.4 1 .7 1.5 1 1.1.6 2.3 1.1 3.6 1.2-1.2-.5-2.2-1.1-3.1-1.9-.9-.8-1.8-1.6-2.6-2.5-.4-.5-.7-.9-1.1-1.4-.3-.5-.6-1-.8-1.5s-.3-1.2-.5-1.8l-.5-1.8c-.4-1.2-.7-2.4-1.2-3.6-.4-1.2-.9-2.4-1.4-3.5l-.2-.4c-.1-.1-.1-.3-.2-.4-.1-.3-.2-.5-.3-.8-.2-.6-.3-1.2-.4-1.8-.2-1.2-.3-2.4-.2-3.7-.4 1.2-.6 2.5-.6 3.7v.4c-.1 0-.1-.1-.2-.1-.4-.1-.7-.2-1.1-.2-.7-.1-1.5-.2-2.2-.2s-1.5-.1-2.2-.1h-.2s-.1 0-.2-.1-.2-.2-.4-.3c-.2-.3-.4-.5-.7-.8-.8-1.2-1.6-2.5-2.3-3.8L51.4 39l-2-3.9c-.7-1.3-1.3-2.6-2-4-.2-.3-.4-.7-.5-1l-.3-.5c-.1-.2-.2-.3-.2-.5-.3-.6-.6-1.3-.8-2-.4-1.4-.7-2.8-.9-4.2-.1-.7-.1-1.4-.1-2.1 0-.7.1-1.4.3-1.9 0-.1.1-.2.1-.3h.2c.1 0 .2.1.4.1.6.2 1.2.6 1.7 1 1.2.8 2.3 1.8 3.5 2.7.6.5 1.2.9 1.9 1.3.3.2.7.4 1.1.6.4.2.7.3 1.1.4 1.4.5 2.9.8 4.3 1.2 1.4.3 2.9.7 4.3 1.1l2.1.6c.3.1.7.3 1 .4.3.2.6.3.8.6.1.1.1.1.1.2l.1.3c.1.2.1.3.2.5.1.3.3.7.5 1 .3.6.6 1.1 1 1.6-.6.5-1.1 1-1.7 1.6 2.1-1.1 4-2.3 6-3.3.5-.3 1-.5 1.5-.7.2-.1.5-.2.7-.3s.3-.1.7-.1c1.2-.1 2.4-.4 3.5-.8.6-.2 1.1-.5 1.6-.7l.4-.2.2-.1h.1c.2-.1.4-.1.7-.2 1.1-.2 2.2-.3 3.3-.4 1.1-.1 2.3-.2 3.4-.2h2.6c.3 0 .6 0 .9.1-.5-.3-1.1-.4-1.7-.6-.2 0-.4-.1-.6-.1-.3-.7-.5-1.3-.6-2-.1-.4-.1-.8-.1-1.2 0-.2.1-.3.2-.5l.4-.5c1.1-1.2 2.2-2.4 3.3-3.7 1.1-1.2 2.1-2.5 3.1-3.8s1.9-2.7 2.8-4.1c.2-.4.4-.7.6-1.1.2-.4.4-.8.5-1.1.3-.7.7-1.4 1.1-2.1.8-1.4 1.7-2.7 2.8-3.8.5-.5 1.1-1 1.7-1.3.3-.1.6-.2.7-.1 0 0 .1 0 .1.1.1 0 .1.1.2.1.1.1.3.2.4.3.5.5 1 1.1 1.4 1.7.4.6.8 1.3 1.1 2 .7 1.4 1.2 2.9 1.7 4.4.4 1.5.7 3.1.7 4.6v1.2c0 .4-.1.8-.1 1.2l-.3 2.4c-.2 1.6-.6 3.2-.8 4.9 0 .4-.1.9 0 1.4 0 .1 0 .2.1.4l.1.3c0 .2.1.3.1.5.1.8.2 1.6.2 2.4 0 .8 0 1.6-.1 2.4-.1.8-.2 1.6-.5 2.2-.1.2-.2.3-.3.4 0 .1-.1.1-.2.1s-.2.1-.2.1c-.3.2-.7.4-1.1.6-.4.2-.7.4-1.1.8-.3.3-.5.8-.6 1.3v.5c0 .2-.1.3-.3.4-.3.3-.6.4-1 .5-.6.2-1.3.3-2 .4-.3-.8-.7-1.6-1.1-2.4.2 1.2.5 2.4.7 3.5.2 1.2.4 2.3.5 3.5v3.5c0 1.2.2 2.4.2 3.6s0 2.3-.1 3.4c-.1.5-.2 1.1-.3 1.7s-.2 1.2-.4 1.7c-.5 2.3-1.2 4.5-2.2 6.7 1.6-1.8 2.7-4.1 3.5-6.4.1-.2.1-.4.2-.6-.2 1.9-.3 3.7-.4 5.6-.1 1.4-.2 2.8-.2 4.2 0 .7 0 1.4-.1 2.1v2.1c.1 1.5.6 2.9 1.1 4.2.5 1.3 1.2 2.6 1.8 3.8 1.3 2.5 2.6 4.9 3.8 7.4.3.6.6 1.3.9 1.9.3.6.6 1.3.8 1.9.5 1.3 1.1 2.5 1.5 3.8 1 2.6 1.8 5.2 2.3 7.8.1.7.2 1.3.2 2l-.1 2.1-.3 4.2c-.1 1.4-.2 2.8-.4 4.1-.1 1.1-.3 2.2-.5 3.3-.1-.6-.2-1.1-.3-1.7-.1-.3-.1-.6-.2-.9l-.3-.9c.1.3.2.6.2.9s.1.6.1.9c0 .6.1 1.2.1 1.8 0 1.2.1 2.4.1 3.6v2.7c0 .3-.1.6-.1.9-.2 1.2-.4 2.4-.6 3.5l-1.4 7.1c-.5 2.3-1.1 4.7-1.5 7.1-.2 1.2-.4 2.4-.5 3.7v1c0 .2 0 .4.1.6 0 .1 0 .1.1.2v.1l.1.2c.2.6.5 1.2.8 1.7.6 1.1 1.2 2.2 1.9 3.2.4.5.7 1 1.2 1.5.2.2.5.5.8.7.2.1.3.2.6.3.1 0 .2.1.4.1h.2c1.1.1 2.3.4 3.4.8.6.2 1.1.4 1.6.7.1.1.3.1.4.2l.4.2c.3.2.6.3.9.5.6.3 1.2.4 1.8.5l.4.1c.1 0 .2.1.4.1.3.1.5.2.8.4.5.3 1 .6 1.5 1 .2.2.4.4.6.7.1.1.1.3.2.4-.2.7-.3.6-.3.6z"/><path d="M102.7 98.1c.1-.6.3-1.2.5-1.8l.7-1.8c.4-1.3.8-2.6 1-4 .1-.3.1-.7.1-1s.1-.7.1-1v-2c0-.7-.1-1.3-.2-2s-.2-1.3-.3-2c-.1.7-.1 1.3-.2 2 0 .7-.1 1.3-.2 2-.1 1.3-.4 2.6-.7 3.8-.3 1.2-.7 2.5-1.2 3.7-.2.6-.5 1.2-.8 1.8-.2.7-.4 1.3-.6 2-.6 2.7-.3 5.6.6 8.2.9 2.6 2.2 4.9 3.7 7.1-.9-2.5-1.9-4.9-2.5-7.4-.4-2.6-.5-5.2 0-7.6z"/></g><g><path d="M76.7 48.5c.2-.5.6-1.2 1.2-1.3.8-.2 1.6.1 2.4-.1.6-.2 2.4-1 3.3-.9.9.1 1.1.3 2 .8 3.4 1.9 4.1 4.7 1.7 7.2-1.5 1.5-3.3 2.8-3.9 2.9-.7.2-3.3-.1-4.6-.7-1.5-.8-4.7-3-2.1-7.9z"/><path class="st0" d="M81.2 50.8c.1.5.2 1.1.4 1.6.1.5.3 1.1.4 1.6.3 1.1.7 2.1 1.1 3.1-.3-.5-.6-.9-.8-1.5-.2-.5-.4-1-.6-1.6-.2-.5-.3-1.1-.4-1.6s-.1-1.1-.1-1.6zM82.7 48.6c.1.5.1 1 .3 1.4.1.4.3.7.6.9.3.2.6.2 1 .1s.8-.3 1.2-.6c-.1.5-.4 1.1-.9 1.4-.3.2-.6.3-.9.3-.3 0-.7-.1-.9-.3-.3-.2-.5-.5-.6-.7-.1-.3-.2-.6-.2-.9-.1-.7.1-1.2.4-1.6zM79.1 49.3c.4.3.8.7.9 1.3.1.3.2.6.1.9 0 .3-.1.6-.3.9s-.5.5-.8.6-.7.1-1 .1c-.6-.1-1.1-.5-1.3-1 .5.1 1 .2 1.4.2s.6-.2.9-.4c.2-.2.3-.6.3-1 0-.6-.1-1.1-.2-1.6z"/></g></g></g></svg>