<svg xmlns="http://www.w3.org/2000/svg" viewBox="0 0 512 512" style="enable-background:new 0 0 512 512" xml:space="preserve"><path d="m341.516 169.489-7.078-4.087c-.49-.284-.774-.828-.704-1.356a78.544 78.544 0 0 0-.006-20.472c-.069-.526.214-1.071.705-1.355l7.084-4.09c8.402-4.852 11.291-15.634 6.44-24.035L336.373 94.03a17.47 17.47 0 0 0-10.684-8.197 17.471 17.471 0 0 0-13.351 1.758l-7.087 4.092c-.49.282-1.106.257-1.526-.068a78.284 78.284 0 0 0-17.745-10.263c-.477-.199-.8-.713-.8-1.281v-8.162c0-9.702-7.892-17.594-17.594-17.594h-23.168c-9.702 0-17.594 7.892-17.594 17.594v8.161c0 .567-.322 1.082-.801 1.281a78.398 78.398 0 0 0-17.75 10.262c-.421.326-1.035.351-1.525.068l-7.083-4.09a17.472 17.472 0 0 0-13.351-1.758 17.477 17.477 0 0 0-10.684 8.197l-11.584 20.064a17.482 17.482 0 0 0-1.758 13.352 17.484 17.484 0 0 0 8.197 10.683l7.079 4.087c.49.283.774.828.704 1.355a78.498 78.498 0 0 0 .006 20.472c.069.528-.213 1.074-.704 1.357l-7.084 4.091c-8.402 4.852-11.291 15.633-6.44 24.034l11.584 20.065c4.851 8.401 15.628 11.292 24.036 6.44l7.086-4.093c.488-.284 1.103-.257 1.527.068a78.352 78.352 0 0 0 17.744 10.263c.478.199.8.713.8 1.281v8.161c0 9.702 7.892 17.594 17.594 17.594h23.168c9.702 0 17.594-7.892 17.594-17.594v-8.163c0-.567.321-1.081.801-1.279a78.471 78.471 0 0 0 17.75-10.26c.421-.324 1.036-.349 1.525-.068l7.083 4.09c8.4 4.852 19.183 1.962 24.035-6.44l11.584-20.065c4.85-8.403 1.961-19.184-6.441-24.036zm-7.562 15.952-11.584 20.065a1.426 1.426 0 0 1-1.949.522l-7.083-4.09c-6.184-3.571-13.825-3.082-19.461 1.248a62.215 62.215 0 0 1-14.084 8.142c-6.55 2.712-10.783 9.078-10.783 16.218v8.163c0 .786-.64 1.426-1.426 1.426h-23.168c-.786 0-1.426-.64-1.426-1.426v-8.161c0-7.138-4.232-13.504-10.779-16.217a62.2 62.2 0 0 1-14.081-8.146 17.436 17.436 0 0 0-10.646-3.626c-3.025 0-6.065.786-8.819 2.375l-7.086 4.093a1.428 1.428 0 0 1-1.949-.522l-11.584-20.065a1.396 1.396 0 0 1-.142-1.081c.069-.261.241-.622.664-.867l7.084-4.091c6.182-3.57 9.577-10.426 8.649-17.469a62.31 62.31 0 0 1-.533-8.123c0-2.717.178-5.455.529-8.137.923-7.039-2.473-13.892-8.651-17.458l-7.078-4.087a1.428 1.428 0 0 1-.522-1.949l11.584-20.064c.245-.424.606-.595.867-.664.261-.07.659-.102 1.082.142l7.084 4.091c6.188 3.569 13.826 3.077 19.461-1.25a62.22 62.22 0 0 1 14.084-8.145c6.55-2.713 10.782-9.079 10.782-16.218v-8.161c0-.786.64-1.426 1.426-1.426h23.168c.786 0 1.426.64 1.426 1.426v8.162c0 7.138 4.232 13.504 10.78 16.217a62.136 62.136 0 0 1 14.081 8.147c5.636 4.332 13.278 4.823 19.464 1.249l7.087-4.092a1.394 1.394 0 0 1 1.082-.142c.261.069.622.241.867.664l11.584 20.064c.245.424.211.822.142 1.082-.069.26-.241.623-.664.867l-7.084 4.089c-6.182 3.57-9.577 10.427-8.649 17.469.354 2.684.532 5.416.532 8.123 0 2.717-.178 5.456-.529 8.137-.923 7.039 2.473 13.893 8.651 17.459l7.079 4.087a1.43 1.43 0 0 1 .521 1.95z"/><path d="M256 113.389c-22.289 0-40.421 18.132-40.421 40.421 0 22.289 18.132 40.421 40.421 40.421s40.421-18.132 40.421-40.421-18.132-40.421-40.421-40.421zm0 64.674c-13.372 0-24.253-10.88-24.253-24.253 0-13.372 10.88-24.253 24.253-24.253 13.372 0 24.253 10.88 24.253 24.253S269.372 178.063 256 178.063z"/><path d="M389.701 245.05c16.545-25.647 25.288-55.407 25.288-86.06 0-42.117-16.303-81.807-45.906-111.759C339.506 17.305 300.061.536 258.017.012 257.343.004 256.674 0 256.002 0c-41.668 0-81.045 16.102-111.071 45.471-30.486 29.82-47.502 69.576-47.914 111.944-.3 30.963 8.305 61.053 24.885 87.017a159.265 159.265 0 0 0 59.348 54.881l-43.468 60.857a14.161 14.161 0 0 0-1.074 14.769 14.163 14.163 0 0 0 12.643 7.712h33.89v15.052c0 9.532 7.753 17.285 17.285 17.285h110.946c9.532 0 17.285-7.753 17.285-17.285v-15.051h33.89a14.163 14.163 0 0 0 12.643-7.712 14.161 14.161 0 0 0-1.073-14.769l-43.47-60.857a159.36 159.36 0 0 0 58.954-54.264zM183.242 366.484h-30.101l30.101-42.141v42.141zm129.347 31.22c0 .615-.501 1.117-1.117 1.117H200.527a1.119 1.119 0 0 1-1.117-1.117v-4.918l113.179-9.432v14.35zm0-30.574-113.179 9.432v-16.113l113.179-9.432v16.113zm46.27-.646h-30.101v-42.141l30.101 42.141zm-41.655-78.422a8.082 8.082 0 0 0-4.614 7.302v7.093l-24.982 2.081a8.084 8.084 0 0 0-7.413 8.056c0 4.73 4.042 8.449 8.755 8.056l23.64-1.969v16.113l-113.179 9.432v-16.113l50.161-4.18a8.084 8.084 0 0 0 7.413-8.056c0-4.73-4.042-8.449-8.755-8.056l-48.819 4.068v-16.524a8.083 8.083 0 0 0-4.614-7.302c-50.114-23.809-82.147-75.029-81.61-130.492.369-38.041 15.657-73.747 43.051-100.541 26.984-26.392 62.349-40.861 99.77-40.861.601 0 1.205.003 1.808.011 77.751.968 141.006 65.033 141.006 142.81-.001 54.854-32.038 105.517-81.618 129.072zM256 474.274a8.082 8.082 0 0 0-8.084 8.084v10.779a8.083 8.083 0 0 0 8.084 8.084 8.083 8.083 0 0 0 8.084-8.084v-10.779a8.082 8.082 0 0 0-8.084-8.084zM212.884 420.379a8.082 8.082 0 0 0-8.084 8.084v75.453c0 4.466 3.619 8.084 8.084 8.084s8.084-3.618 8.084-8.084v-75.453a8.082 8.082 0 0 0-8.084-8.084zM299.116 420.379a8.082 8.082 0 0 0-8.084 8.084v75.453a8.083 8.083 0 0 0 8.084 8.084 8.082 8.082 0 0 0 8.084-8.084v-75.453a8.082 8.082 0 0 0-8.084-8.084zM256 420.379a8.082 8.082 0 0 0-8.084 8.084v21.558a8.083 8.083 0 0 0 8.084 8.084 8.083 8.083 0 0 0 8.084-8.084v-21.558a8.082 8.082 0 0 0-8.084-8.084z"/></svg>