<svg xmlns="http://www.w3.org/2000/svg" viewBox="0 0 512.091 512.091" style="enable-background:new 0 0 512.091 512.091" xml:space="preserve"><path d="M213.379 409.691v-15.883a89.445 89.445 0 0 0-18.704-55.892 61.437 61.437 0 0 0-28.446-20.746 168.866 168.866 0 0 1-48.85-31.346c-13.308-10.994-32.238-11.997-46.633-2.471L52.283 240.27a27.207 27.207 0 1 0-49.775 21.97l33.442 73.571a90.75 90.75 0 0 0 18.529 26.742l52.595 52.595a16.957 16.957 0 0 0-4.629 11.609v68.267c.009 9.422 7.645 17.057 17.067 17.067h93.867c9.422-.009 17.057-7.645 17.067-17.067v-68.267c-.009-9.421-7.645-17.057-17.067-17.066zM66.546 350.486a73.885 73.885 0 0 1-15.062-21.733l-33.442-73.571a9.98 9.98 0 0 1 .708-9.692 9.966 9.966 0 0 1 8.525-4.65 10.126 10.126 0 0 1 9.321 6.15l19.083 44.525A100.98 100.98 0 0 0 77.2 323.302l38.983 38.983a8.532 8.532 0 1 0 12.067-12.067l-38.983-38.983a84.43 84.43 0 0 1-10.517-12.809 22.149 22.149 0 0 1 27.638.454 182.01 182.01 0 0 0 54.446 34.479 44.774 44.774 0 0 1 20.517 15.212 72.376 72.376 0 0 1 14.963 45.234v15.883h-70.562l-59.206-59.202zm52.967 144.538v-68.267h93.867l.012 68.267h-93.879z"/><path d="M196.313 452.357h-8.533a8.533 8.533 0 0 0 0 17.066h8.533a8.533 8.533 0 0 0 0-17.066zM506.839 234.999a27.206 27.206 0 0 0-47.026 5.266l-18.417 42.967c-14.444-9.474-33.377-8.423-46.683 2.592a168.83 168.83 0 0 1-48.854 31.346 61.457 61.457 0 0 0-28.442 20.746 89.443 89.443 0 0 0-18.704 55.892v15.883c-9.422.009-17.057 7.645-17.067 17.067v68.267c.009 9.422 7.645 17.057 17.067 17.067h93.867c9.422-.009 17.057-7.645 17.067-17.067v-68.267a16.957 16.957 0 0 0-4.629-11.609l52.595-52.595a90.737 90.737 0 0 0 18.529-26.742l33.442-73.571a27.205 27.205 0 0 0-2.745-27.242zm-114.26 260.025h-93.867v-68.267h93.867v68.267zM494.05 255.182l-33.442 73.571a73.888 73.888 0 0 1-15.063 21.733l-59.204 59.204h-70.562v-15.883a72.37 72.37 0 0 1 14.963-45.233 44.782 44.782 0 0 1 20.513-15.212 181.977 181.977 0 0 0 54.45-34.479 22.187 22.187 0 0 1 27.692-.533 84.405 84.405 0 0 1-10.571 12.887l-38.983 38.983a8.53 8.53 0 0 0 3.825 14.275 8.535 8.535 0 0 0 8.242-2.208l38.983-38.983a100.98 100.98 0 0 0 21.521-31.787l19.088-44.529a10.12 10.12 0 0 1 9.317-6.146 10.14 10.14 0 0 1 9.231 14.34z"/><path d="M315.779 469.424h8.533c4.713 0 8.533-3.82 8.533-8.533s-3.82-8.533-8.533-8.533h-8.533a8.533 8.533 0 0 0 0 17.066zM407.33 207.52c37.592-72.104 36.925-145.413-1.658-182.417a93.263 93.263 0 0 0-79.526-23.742 104.438 104.438 0 0 0-70.1 47.579 104.46 104.46 0 0 0-70.1-47.579 93.306 93.306 0 0 0-79.529 23.742c-38.579 37.004-39.246 110.313-1.766 182.204 30.246 62.154 112.737 119.525 146.8 141.304a8.522 8.522 0 0 0 9.192 0c34.061-21.779 116.553-79.15 146.687-141.091zM256.046 331.266c-35.142-22.892-108.954-75.742-136.154-131.637-34.05-65.317-34.717-130.504-1.658-162.208a76.196 76.196 0 0 1 52.346-20.237 77.633 77.633 0 0 1 12.6 1.021 91.463 91.463 0 0 1 65.3 51.467 8.883 8.883 0 0 0 15.134 0 91.465 91.465 0 0 1 65.3-51.467 77.145 77.145 0 0 1 64.942 19.217c33.063 31.704 32.392 96.892-1.766 162.421-27.094 55.689-100.902 108.531-136.044 131.423z"/><path d="M153.646 68.357a8.533 8.533 0 0 0 8.533-8.533v-8.533a8.533 8.533 0 0 0-17.066 0v8.533a8.533 8.533 0 0 0 8.533 8.533zM153.646 85.424a8.533 8.533 0 0 0-8.533 8.533v8.533a8.533 8.533 0 0 0 17.066 0v-8.533a8.533 8.533 0 0 0-8.533-8.533zM136.579 68.357h-8.533c-4.713 0-8.533 3.82-8.533 8.533s3.82 8.533 8.533 8.533h8.533c4.713 0 8.533-3.82 8.533-8.533s-3.82-8.533-8.533-8.533zM179.246 68.357h-8.533c-4.713 0-8.533 3.82-8.533 8.533s3.82 8.533 8.533 8.533h8.533c4.713 0 8.533-3.82 8.533-8.533s-3.82-8.533-8.533-8.533z"/></svg>